<?xml version="1.0" encoding="UTF-8" standalone="no"?>
<!DOCTYPE svg PUBLIC "-//W3C//DTD SVG 1.1//EN"
 "http://www.w3.org/Graphics/SVG/1.1/DTD/svg11.dtd">
<!-- Generated by graphviz version 12.2.1 (0)
 -->
<!-- Title: web_fusion_example Pages: 1 -->
<svg width="262pt" height="313pt"
 viewBox="0.00 0.00 261.50 312.74" xmlns="http://www.w3.org/2000/svg" xmlns:xlink="http://www.w3.org/1999/xlink">
<g id="graph0" class="graph" transform="scale(1 1) rotate(0) translate(4 308.74)">
<title>web_fusion_example</title>
<!-- r0 -->
<g id="node1" class="node">
<title>r0</title>
<path fill="#252628" stroke="#1982d2" stroke-width="1.4" d="M241.5,-304.74C241.5,-304.74 174.5,-304.74 174.5,-304.74 168.5,-304.74 162.5,-298.74 162.5,-292.74 162.5,-292.74 162.5,-280.74 162.5,-280.74 162.5,-274.74 168.5,-268.74 174.5,-268.74 174.5,-268.74 241.5,-268.74 241.5,-268.74 247.5,-268.74 253.5,-274.74 253.5,-280.74 253.5,-280.74 253.5,-292.74 253.5,-292.74 253.5,-298.74 247.5,-304.74 241.5,-304.74"/>
<text text-anchor="middle" x="208" y="-280.94" font-family="DejaVu Sans" font-size="14.00" fill="#f8f9fa">x: 1+,2,3,4,7</text>
</g>
<!-- r1 -->
<g id="node2" class="node">
<title>r1</title>
<path fill="#252628" stroke="#1982d2" stroke-width="1.4" d="M190,-222.99C190,-222.99 160,-222.99 160,-222.99 154,-222.99 148,-216.99 148,-210.99 148,-210.99 148,-198.99 148,-198.99 148,-192.99 154,-186.99 160,-186.99 160,-186.99 190,-186.99 190,-186.99 196,-186.99 202,-192.99 202,-198.99 202,-198.99 202,-210.99 202,-210.99 202,-216.99 196,-222.99 190,-222.99"/>
<text text-anchor="middle" x="175" y="-199.19" font-family="DejaVu Sans" font-size="14.00" fill="#f8f9fa">x: 7,8</text>
</g>
<!-- r0&#45;&#45;r1 -->
<g id="edge1" class="edge">
<title>r0&#45;&#45;r1</title>
<path fill="none" stroke="#859399" stroke-width="1.3" d="M200.84,-268.43C195.3,-255.05 187.68,-236.62 182.15,-223.26"/>
<text text-anchor="middle" x="200.6" y="-242.19" font-family="DejaVu Sans" font-size="9.00" fill="#859399"> &#160;7 &#160;</text>
</g>
<!-- web0 -->
<g id="node5" class="node">
<title>web0</title>
<ellipse fill="#44b86f" stroke="#859399" stroke-width="1.4" cx="159" cy="-34.12" rx="34.12" ry="34.12"/>
<text text-anchor="middle" x="159" y="-35.82" font-family="DejaVu Sans" font-size="14.00" fill="#f8f9fa">web0</text>
<text text-anchor="middle" x="159" y="-20.82" font-family="DejaVu Sans" font-size="14.00" fill="#f8f9fa">(x)</text>
</g>
<!-- r0&#45;&#45;web0 -->
<g id="edge4" class="edge">
<title>r0&#45;&#45;web0</title>
<path fill="none" stroke="#44b86f" stroke-width="1.3" stroke-dasharray="5,2" d="M210.39,-268.32C211.05,-262.72 211.67,-256.48 212,-250.74 212.25,-246.41 212.04,-245.32 212,-240.99 211.36,-171.46 215.69,-150.44 189,-86.24 185.8,-78.54 181.62,-70.6 177.4,-63.33"/>
</g>
<!-- r2 -->
<g id="node3" class="node">
<title>r2</title>
<path fill="#252628" stroke="#1982d2" stroke-width="1.4" d="M42,-141.24C42,-141.24 12,-141.24 12,-141.24 6,-141.24 0,-135.24 0,-129.24 0,-129.24 0,-117.24 0,-117.24 0,-111.24 6,-105.24 12,-105.24 12,-105.24 42,-105.24 42,-105.24 48,-105.24 54,-111.24 54,-117.24 54,-117.24 54,-129.24 54,-129.24 54,-135.24 48,-141.24 42,-141.24"/>
<text text-anchor="middle" x="27" y="-117.44" font-family="DejaVu Sans" font-size="14.00" fill="#f8f9fa">x: 8,9&#45;</text>
</g>
<!-- r1&#45;&#45;r2 -->
<g id="edge2" class="edge">
<title>r1&#45;&#45;r2</title>
<path fill="none" stroke="#859399" stroke-width="1.3" d="M147.51,-189.17C120.93,-174.85 80.88,-153.27 54.34,-138.97"/>
<text text-anchor="middle" x="116.99" y="-160.44" font-family="DejaVu Sans" font-size="9.00" fill="#859399"> &#160;8 &#160;</text>
</g>
<!-- r3 -->
<g id="node4" class="node">
<title>r3</title>
<path fill="#252628" stroke="#1982d2" stroke-width="1.4" d="M158.25,-141.24C158.25,-141.24 83.75,-141.24 83.75,-141.24 77.75,-141.24 71.75,-135.24 71.75,-129.24 71.75,-129.24 71.75,-117.24 71.75,-117.24 71.75,-111.24 77.75,-105.24 83.75,-105.24 83.75,-105.24 158.25,-105.24 158.25,-105.24 164.25,-105.24 170.25,-111.24 170.25,-117.24 170.25,-117.24 170.25,-129.24 170.25,-129.24 170.25,-135.24 164.25,-141.24 158.25,-141.24"/>
<text text-anchor="middle" x="121" y="-117.44" font-family="DejaVu Sans" font-size="14.00" fill="#f8f9fa">x: 8,11,12,13&#45;</text>
</g>
<!-- r1&#45;&#45;r3 -->
<g id="edge3" class="edge">
<title>r1&#45;&#45;r3</title>
<path fill="none" stroke="#859399" stroke-width="1.3" d="M163.28,-186.68C154.23,-173.3 141.75,-154.87 132.69,-141.51"/>
<text text-anchor="middle" x="158.36" y="-160.44" font-family="DejaVu Sans" font-size="9.00" fill="#859399"> &#160;8 &#160;</text>
</g>
<!-- r1&#45;&#45;web0 -->
<g id="edge5" class="edge">
<title>r1&#45;&#45;web0</title>
<path fill="none" stroke="#44b86f" stroke-width="1.3" stroke-dasharray="5,2" d="M177.55,-186.77C180.06,-166.99 182.97,-133.61 179,-105.24 177.21,-92.45 173.67,-78.72 170.06,-66.83"/>
</g>
<!-- r2&#45;&#45;web0 -->
<g id="edge6" class="edge">
<title>r2&#45;&#45;web0</title>
<path fill="none" stroke="#44b86f" stroke-width="1.3" stroke-dasharray="5,2" d="M53.39,-104.82C75.82,-90.02 107.91,-68.84 130.83,-53.71"/>
</g>
<!-- r3&#45;&#45;web0 -->
<g id="edge7" class="edge">
<title>r3&#45;&#45;web0</title>
<path fill="none" stroke="#44b86f" stroke-width="1.3" stroke-dasharray="5,2" d="M128.51,-105.02C133.4,-93.82 139.91,-78.88 145.66,-65.7"/>
</g>
</g>
</svg>
