<?xml version="1.0" encoding="UTF-8" standalone="no"?>
<!DOCTYPE svg PUBLIC "-//W3C//DTD SVG 1.1//EN"
 "http://www.w3.org/Graphics/SVG/1.1/DTD/svg11.dtd">
<!-- Generated by graphviz version 12.2.1 (0)
 -->
<!-- Title: services/AllocationLogic.cpp Pages: 1 -->
<svg width="815pt" height="304pt"
 viewBox="0.00 0.00 814.52 303.50" xmlns="http://www.w3.org/2000/svg" xmlns:xlink="http://www.w3.org/1999/xlink">
<g id="graph0" class="graph" transform="scale(1 1) rotate(0) translate(4 299.5)">
<title>services/AllocationLogic.cpp</title>
<!-- Node1 -->
<g id="Node000001" class="node">
<title>Node1</title>
<g id="a_Node000001"><a xlink:title="Implementation of the AllocationLogic orchestration layer.">
<polygon fill="#999999" stroke="#666666" points="504.15,-295.5 363.65,-295.5 363.65,-276.25 504.15,-276.25 504.15,-295.5"/>
<text text-anchor="middle" x="433.9" y="-282" font-family="Helvetica,sans-Serif" font-size="10.00">services/AllocationLogic.cpp</text>
</a>
</g>
</g>
<!-- Node2 -->
<g id="Node000002" class="node">
<title>Node2</title>
<g id="a_Node000002"><a xlink:href="_allocation_logic_8h.html" target="_top" xlink:title="Orchestration layer: runs the selected algorithm and writes output.">
<polygon fill="white" stroke="#666666" points="498.9,-240.25 368.9,-240.25 368.9,-221 498.9,-221 498.9,-240.25"/>
<text text-anchor="middle" x="433.9" y="-226.75" font-family="Helvetica,sans-Serif" font-size="10.00">services/AllocationLogic.h</text>
</a>
</g>
</g>
<!-- Node1&#45;&gt;Node2 -->
<g id="edge1_Node000001_Node000002" class="edge">
<title>Node1&#45;&gt;Node2</title>
<g id="a_edge1_Node000001_Node000002"><a xlink:title=" ">
<path fill="none" stroke="#63b8ff" d="M433.9,-276.08C433.9,-269.57 433.9,-260.42 433.9,-252.12"/>
<polygon fill="#63b8ff" stroke="#63b8ff" points="437.4,-252.12 433.9,-242.12 430.4,-252.12 437.4,-252.12"/>
</a>
</g>
</g>
<!-- Node5 -->
<g id="Node000005" class="node">
<title>Node5</title>
<g id="a_Node000005"><a xlink:title=" ">
<polygon fill="#e0e0e0" stroke="#999999" points="400.4,-19.25 357.4,-19.25 357.4,0 400.4,0 400.4,-19.25"/>
<text text-anchor="middle" x="378.9" y="-5.75" font-family="Helvetica,sans-Serif" font-size="10.00">vector</text>
</a>
</g>
</g>
<!-- Node1&#45;&gt;Node5 -->
<g id="edge34_Node000001_Node000005" class="edge">
<title>Node1&#45;&gt;Node5</title>
<g id="a_edge34_Node000001_Node000005"><a xlink:title=" ">
<path fill="none" stroke="#63b8ff" d="M363.37,-281.7C240.67,-274.23 0.9,-250.19 0.9,-176.38 0.9,-176.38 0.9,-176.38 0.9,-119.12 0.9,-89.51 -2.7,-74.39 19.9,-55.25 68.68,-13.94 266.85,-10.11 346.01,-10.27"/>
<polygon fill="#63b8ff" stroke="#63b8ff" points="345.69,-13.77 355.71,-10.32 345.73,-6.77 345.69,-13.77"/>
</a>
</g>
</g>
<!-- Node7 -->
<g id="Node000007" class="node">
<title>Node7</title>
<g id="a_Node000007"><a xlink:title=" ">
<polygon fill="#e0e0e0" stroke="#999999" points="436.65,-74.5 407.15,-74.5 407.15,-55.25 436.65,-55.25 436.65,-74.5"/>
<text text-anchor="middle" x="421.9" y="-61" font-family="Helvetica,sans-Serif" font-size="10.00">set</text>
</a>
</g>
</g>
<!-- Node1&#45;&gt;Node7 -->
<g id="edge32_Node000001_Node000007" class="edge">
<title>Node1&#45;&gt;Node7</title>
<g id="a_edge32_Node000001_Node000007"><a xlink:title=" ">
<path fill="none" stroke="#63b8ff" d="M405.86,-275.9C389.3,-268.99 369.71,-257.62 359.9,-240.25 329.56,-186.52 379.63,-115.27 406.54,-83.03"/>
<polygon fill="#63b8ff" stroke="#63b8ff" points="408.88,-85.68 412.75,-75.82 403.57,-81.11 408.88,-85.68"/>
</a>
</g>
</g>
<!-- Node9 -->
<g id="Node000009" class="node">
<title>Node9</title>
<g id="a_Node000009"><a xlink:title=" ">
<polygon fill="#e0e0e0" stroke="#999999" points="82.65,-74.5 29.15,-74.5 29.15,-55.25 82.65,-55.25 82.65,-74.5"/>
<text text-anchor="middle" x="55.9" y="-61" font-family="Helvetica,sans-Serif" font-size="10.00">iostream</text>
</a>
</g>
</g>
<!-- Node1&#45;&gt;Node9 -->
<g id="edge28_Node000001_Node000009" class="edge">
<title>Node1&#45;&gt;Node9</title>
<g id="a_edge28_Node000001_Node000009"><a xlink:title=" ">
<path fill="none" stroke="#63b8ff" d="M374.41,-275.79C338.66,-268.94 292.89,-257.69 254.9,-240.25 172.86,-202.59 99.5,-119.99 69.85,-83.64"/>
<polygon fill="#63b8ff" stroke="#63b8ff" points="72.6,-81.48 63.62,-75.87 67.14,-85.86 72.6,-81.48"/>
</a>
</g>
</g>
<!-- Node12 -->
<g id="Node000012" class="node">
<title>Node12</title>
<g id="a_Node000012"><a xlink:title=" ">
<polygon fill="#e0e0e0" stroke="#999999" points="156.78,-74.5 101.03,-74.5 101.03,-55.25 156.78,-55.25 156.78,-74.5"/>
<text text-anchor="middle" x="128.9" y="-61" font-family="Helvetica,sans-Serif" font-size="10.00">algorithm</text>
</a>
</g>
</g>
<!-- Node1&#45;&gt;Node12 -->
<g id="edge30_Node000001_Node000012" class="edge">
<title>Node1&#45;&gt;Node12</title>
<g id="a_edge30_Node000001_Node000012"><a xlink:title=" ">
<path fill="none" stroke="#63b8ff" d="M396.7,-275.76C334.3,-258.45 208.99,-214.75 143.9,-129.75 134.35,-117.28 130.73,-99.7 129.43,-86.15"/>
<polygon fill="#63b8ff" stroke="#63b8ff" points="132.93,-85.97 128.86,-76.19 125.94,-86.37 132.93,-85.97"/>
</a>
</g>
</g>
<!-- Node16 -->
<g id="Node000016" class="node">
<title>Node16</title>
<g id="a_Node000016"><a xlink:title=" ">
<polygon fill="#e0e0e0" stroke="#999999" points="613.28,-240.25 554.53,-240.25 554.53,-221 613.28,-221 613.28,-240.25"/>
<text text-anchor="middle" x="583.9" y="-226.75" font-family="Helvetica,sans-Serif" font-size="10.00">stdexcept</text>
</a>
</g>
</g>
<!-- Node1&#45;&gt;Node16 -->
<g id="edge29_Node000001_Node000016" class="edge">
<title>Node1&#45;&gt;Node16</title>
<g id="a_edge29_Node000001_Node000016"><a xlink:title=" ">
<path fill="none" stroke="#63b8ff" d="M459.35,-275.84C483.59,-267.24 520.34,-254.19 547.64,-244.5"/>
<polygon fill="#63b8ff" stroke="#63b8ff" points="548.65,-247.85 556.9,-241.21 546.31,-241.26 548.65,-247.85"/>
</a>
</g>
</g>
<!-- Node17 -->
<g id="Node000017" class="node">
<title>Node17</title>
<g id="a_Node000017"><a xlink:title=" ">
<polygon fill="#e0e0e0" stroke="#999999" points="680.4,-240.25 631.4,-240.25 631.4,-221 680.4,-221 680.4,-240.25"/>
<text text-anchor="middle" x="655.9" y="-226.75" font-family="Helvetica,sans-Serif" font-size="10.00">fstream</text>
</a>
</g>
</g>
<!-- Node1&#45;&gt;Node17 -->
<g id="edge31_Node000001_Node000017" class="edge">
<title>Node1&#45;&gt;Node17</title>
<g id="a_edge31_Node000001_Node000017"><a xlink:title=" ">
<path fill="none" stroke="#63b8ff" d="M472.83,-275.82C508.57,-267.46 563.29,-254.57 620.04,-240.68"/>
<polygon fill="#63b8ff" stroke="#63b8ff" points="620.68,-244.12 629.56,-238.34 619.01,-237.33 620.68,-244.12"/>
</a>
</g>
</g>
<!-- Node18 -->
<g id="Node000018" class="node">
<title>Node18</title>
<g id="a_Node000018"><a xlink:title=" ">
<polygon fill="#e0e0e0" stroke="#999999" points="749.53,-240.25 698.28,-240.25 698.28,-221 749.53,-221 749.53,-240.25"/>
<text text-anchor="middle" x="723.9" y="-226.75" font-family="Helvetica,sans-Serif" font-size="10.00">sstream</text>
</a>
</g>
</g>
<!-- Node1&#45;&gt;Node18 -->
<g id="edge33_Node000001_Node000018" class="edge">
<title>Node1&#45;&gt;Node18</title>
<g id="a_edge33_Node000001_Node000018"><a xlink:title=" ">
<path fill="none" stroke="#63b8ff" d="M493.63,-275.78C543.13,-267.94 615.56,-255.79 686.97,-240.76"/>
<polygon fill="#63b8ff" stroke="#63b8ff" points="687.43,-244.24 696.48,-238.74 685.97,-237.39 687.43,-244.24"/>
</a>
</g>
</g>
<!-- Node19 -->
<g id="Node000019" class="node">
<title>Node19</title>
<g id="a_Node000019"><a xlink:href="_output_writer_8h.html" target="_top" xlink:title="Writes the register allocation result to a text file.">
<polygon fill="white" stroke="#666666" points="768.28,-185 679.53,-185 679.53,-165.75 768.28,-165.75 768.28,-185"/>
<text text-anchor="middle" x="723.9" y="-171.5" font-family="Helvetica,sans-Serif" font-size="10.00">io/OutputWriter.h</text>
</a>
</g>
</g>
<!-- Node1&#45;&gt;Node19 -->
<g id="edge35_Node000001_Node000019" class="edge">
<title>Node1&#45;&gt;Node19</title>
<g id="a_edge35_Node000001_Node000019"><a xlink:title=" ">
<path fill="none" stroke="#63b8ff" d="M448.46,-275.91C474.03,-260.27 526.17,-228.93 545.9,-221 585.51,-205.09 632.43,-193.61 668.14,-186.28"/>
<polygon fill="#63b8ff" stroke="#63b8ff" points="668.72,-189.73 677.84,-184.34 667.35,-182.87 668.72,-189.73"/>
</a>
</g>
</g>
<!-- Node3 -->
<g id="Node000003" class="node">
<title>Node3</title>
<g id="a_Node000003"><a xlink:title=" ">
<polygon fill="#e0e0e0" stroke="#999999" points="741.28,-129.75 706.53,-129.75 706.53,-110.5 741.28,-110.5 741.28,-129.75"/>
<text text-anchor="middle" x="723.9" y="-116.25" font-family="Helvetica,sans-Serif" font-size="10.00">map</text>
</a>
</g>
</g>
<!-- Node2&#45;&gt;Node3 -->
<g id="edge2_Node000002_Node000003" class="edge">
<title>Node2&#45;&gt;Node3</title>
<g id="a_edge2_Node000002_Node000003"><a xlink:title=" ">
<path fill="none" stroke="#63b8ff" d="M472.89,-220.52C505.03,-212.54 551.55,-199.92 590.9,-185 629,-170.56 671.11,-149.4 697.53,-135.45"/>
<polygon fill="#63b8ff" stroke="#63b8ff" points="698.99,-138.63 706.17,-130.84 695.7,-132.46 698.99,-138.63"/>
</a>
</g>
</g>
<!-- Node4 -->
<g id="Node000004" class="node">
<title>Node4</title>
<g id="a_Node000004"><a xlink:title=" ">
<polygon fill="#e0e0e0" stroke="#999999" points="741.9,-19.25 701.9,-19.25 701.9,0 741.9,0 741.9,-19.25"/>
<text text-anchor="middle" x="721.9" y="-5.75" font-family="Helvetica,sans-Serif" font-size="10.00">string</text>
</a>
</g>
</g>
<!-- Node2&#45;&gt;Node4 -->
<g id="edge3_Node000002_Node000004" class="edge">
<title>Node2&#45;&gt;Node4</title>
<g id="a_edge3_Node000002_Node000004"><a xlink:title=" ">
<path fill="none" stroke="#63b8ff" d="M499.09,-224.75C592.49,-217.22 755.55,-201.86 776.9,-185 822.16,-149.26 809.85,-101.86 775.9,-55.25 767.76,-44.08 756.2,-34.03 745.87,-26.31"/>
<polygon fill="#63b8ff" stroke="#63b8ff" points="747.9,-23.46 737.72,-20.53 743.85,-29.17 747.9,-23.46"/>
</a>
</g>
</g>
<!-- Node2&#45;&gt;Node5 -->
<g id="edge4_Node000002_Node000005" class="edge">
<title>Node2&#45;&gt;Node5</title>
<g id="a_edge4_Node000002_Node000005"><a xlink:title=" ">
<path fill="none" stroke="#63b8ff" d="M426.54,-220.64C419.87,-212.02 410.27,-198.37 404.9,-185 383.75,-132.35 379.6,-64.51 378.92,-31.09"/>
<polygon fill="#63b8ff" stroke="#63b8ff" points="382.42,-31.19 378.81,-21.23 375.42,-31.26 382.42,-31.19"/>
</a>
</g>
</g>
<!-- Node6 -->
<g id="Node000006" class="node">
<title>Node6</title>
<g id="a_Node000006"><a xlink:href="_graph_coloring_8h.html" target="_top" xlink:title="Graph&#45;coloring&#45;based register allocation algorithms.">
<polygon fill="white" stroke="#666666" points="555.15,-185 420.65,-185 420.65,-165.75 555.15,-165.75 555.15,-185"/>
<text text-anchor="middle" x="487.9" y="-171.5" font-family="Helvetica,sans-Serif" font-size="10.00">algorithms/GraphColoring.h</text>
</a>
</g>
</g>
<!-- Node2&#45;&gt;Node6 -->
<g id="edge5_Node000002_Node000006" class="edge">
<title>Node2&#45;&gt;Node6</title>
<g id="a_edge5_Node000002_Node000006"><a xlink:title=" ">
<path fill="none" stroke="#63b8ff" d="M442.82,-220.83C450.35,-213.4 461.37,-202.54 470.63,-193.41"/>
<polygon fill="#63b8ff" stroke="#63b8ff" points="473.05,-195.94 477.71,-186.42 468.13,-190.95 473.05,-195.94"/>
</a>
</g>
</g>
<!-- Node8 -->
<g id="Node000008" class="node">
<title>Node8</title>
<g id="a_Node000008"><a xlink:href="_graph_8h.html" target="_top" xlink:title=" ">
<polygon fill="white" stroke="#666666" points="274.4,-129.75 153.4,-129.75 153.4,-110.5 274.4,-110.5 274.4,-129.75"/>
<text text-anchor="middle" x="213.9" y="-116.25" font-family="Helvetica,sans-Serif" font-size="10.00">data_structures/Graph.h</text>
</a>
</g>
</g>
<!-- Node2&#45;&gt;Node8 -->
<g id="edge25_Node000002_Node000008" class="edge">
<title>Node2&#45;&gt;Node8</title>
<g id="a_edge25_Node000002_Node000008"><a xlink:title=" ">
<path fill="none" stroke="#63b8ff" d="M387.9,-220.53C358.4,-213.5 319.96,-202.05 288.9,-185 266.06,-172.46 243.83,-152.22 229.59,-137.89"/>
<polygon fill="#63b8ff" stroke="#63b8ff" points="232.33,-135.69 222.87,-130.94 227.3,-140.56 232.33,-135.69"/>
</a>
</g>
</g>
<!-- Node13 -->
<g id="Node000013" class="node">
<title>Node13</title>
<g id="a_Node000013"><a xlink:href="_parameters_8h.html" target="_top" xlink:title="Configuration parameters parsed from the registers/config input file.">
<polygon fill="white" stroke="#666666" points="688.4,-129.75 579.4,-129.75 579.4,-110.5 688.4,-110.5 688.4,-129.75"/>
<text text-anchor="middle" x="633.9" y="-116.25" font-family="Helvetica,sans-Serif" font-size="10.00">models/Parameters.h</text>
</a>
</g>
</g>
<!-- Node2&#45;&gt;Node13 -->
<g id="edge26_Node000002_Node000013" class="edge">
<title>Node2&#45;&gt;Node13</title>
<g id="a_edge26_Node000002_Node000013"><a xlink:title=" ">
<path fill="none" stroke="#63b8ff" d="M473.54,-220.55C500.27,-213.36 535.68,-201.73 563.9,-185 585.03,-172.47 605.32,-152.83 618.57,-138.64"/>
<polygon fill="#63b8ff" stroke="#63b8ff" points="621.05,-141.1 625.17,-131.34 615.87,-136.4 621.05,-141.1"/>
</a>
</g>
</g>
<!-- Node14 -->
<g id="Node000014" class="node">
<title>Node14</title>
<g id="a_Node000014"><a xlink:href="_web_8h.html" target="_top" xlink:title="Data model for a live web (merged live ranges of a variable).">
<polygon fill="white" stroke="#666666" points="523.03,-129.75 444.78,-129.75 444.78,-110.5 523.03,-110.5 523.03,-129.75"/>
<text text-anchor="middle" x="483.9" y="-116.25" font-family="Helvetica,sans-Serif" font-size="10.00">models/Web.h</text>
</a>
</g>
</g>
<!-- Node2&#45;&gt;Node14 -->
<g id="edge27_Node000002_Node000014" class="edge">
<title>Node2&#45;&gt;Node14</title>
<g id="a_edge27_Node000002_Node000014"><a xlink:title=" ">
<path fill="none" stroke="#63b8ff" d="M426.19,-220.53C416.35,-207.75 401.75,-183.99 411.9,-165.75 419.54,-152.03 433.33,-141.99 446.82,-134.95"/>
<polygon fill="#63b8ff" stroke="#63b8ff" points="448.06,-138.23 455.59,-130.79 445.06,-131.91 448.06,-138.23"/>
</a>
</g>
</g>
<!-- Node6&#45;&gt;Node3 -->
<g id="edge6_Node000006_Node000003" class="edge">
<title>Node6&#45;&gt;Node3</title>
<g id="a_edge6_Node000006_Node000003"><a xlink:title=" ">
<path fill="none" stroke="#63b8ff" d="M538.34,-165.29C578.61,-157.66 636.65,-145.87 695.15,-130.28"/>
<polygon fill="#63b8ff" stroke="#63b8ff" points="695.88,-133.71 704.62,-127.72 694.05,-126.95 695.88,-133.71"/>
</a>
</g>
</g>
<!-- Node6&#45;&gt;Node4 -->
<g id="edge8_Node000006_Node000004" class="edge">
<title>Node6&#45;&gt;Node4</title>
<g id="a_edge8_Node000006_Node000004"><a xlink:title=" ">
<path fill="none" stroke="#63b8ff" d="M497.4,-165.4C512.12,-151.89 541.8,-126.25 570.9,-110.5 613.55,-87.42 634.75,-103.12 673.9,-74.5 690.32,-62.5 703.68,-43.29 712.09,-29.07"/>
<polygon fill="#63b8ff" stroke="#63b8ff" points="714.95,-31.12 716.79,-20.69 708.85,-27.7 714.95,-31.12"/>
</a>
</g>
</g>
<!-- Node6&#45;&gt;Node5 -->
<g id="edge9_Node000006_Node000005" class="edge">
<title>Node6&#45;&gt;Node5</title>
<g id="a_edge9_Node000006_Node000005"><a xlink:title=" ">
<path fill="none" stroke="#63b8ff" d="M469.96,-165.27C455.94,-157.42 436.74,-144.97 423.9,-129.75 399.26,-100.55 387.38,-56.49 382.26,-30.94"/>
<polygon fill="#63b8ff" stroke="#63b8ff" points="385.73,-30.43 380.49,-21.22 378.84,-31.69 385.73,-30.43"/>
</a>
</g>
</g>
<!-- Node6&#45;&gt;Node7 -->
<g id="edge7_Node000006_Node000007" class="edge">
<title>Node6&#45;&gt;Node7</title>
<g id="a_edge7_Node000006_Node000007"><a xlink:title=" ">
<path fill="none" stroke="#63b8ff" d="M472.77,-165.32C460.9,-157.42 444.93,-144.86 435.9,-129.75 427.96,-116.46 424.5,-99.2 423.01,-85.97"/>
<polygon fill="#63b8ff" stroke="#63b8ff" points="426.52,-85.97 422.22,-76.29 419.55,-86.54 426.52,-85.97"/>
</a>
</g>
</g>
<!-- Node6&#45;&gt;Node8 -->
<g id="edge10_Node000006_Node000008" class="edge">
<title>Node6&#45;&gt;Node8</title>
<g id="a_edge10_Node000006_Node000008"><a xlink:title=" ">
<path fill="none" stroke="#63b8ff" d="M441.11,-165.28C394.22,-156.17 321.94,-142.12 271.54,-132.33"/>
<polygon fill="#63b8ff" stroke="#63b8ff" points="272.47,-128.94 261.98,-130.47 271.13,-135.81 272.47,-128.94"/>
</a>
</g>
</g>
<!-- Node6&#45;&gt;Node13 -->
<g id="edge16_Node000006_Node000013" class="edge">
<title>Node6&#45;&gt;Node13</title>
<g id="a_edge16_Node000006_Node000013"><a xlink:title=" ">
<path fill="none" stroke="#63b8ff" d="M512.67,-165.34C536.16,-156.77 571.71,-143.81 598.25,-134.13"/>
<polygon fill="#63b8ff" stroke="#63b8ff" points="599.39,-137.44 607.59,-130.72 597,-130.86 599.39,-137.44"/>
</a>
</g>
</g>
<!-- Node6&#45;&gt;Node14 -->
<g id="edge18_Node000006_Node000014" class="edge">
<title>Node6&#45;&gt;Node14</title>
<g id="a_edge18_Node000006_Node000014"><a xlink:title=" ">
<path fill="none" stroke="#63b8ff" d="M487.24,-165.58C486.75,-158.99 486.05,-149.71 485.42,-141.32"/>
<polygon fill="#63b8ff" stroke="#63b8ff" points="488.93,-141.33 484.69,-131.62 481.95,-141.85 488.93,-141.33"/>
</a>
</g>
</g>
<!-- Node8&#45;&gt;Node5 -->
<g id="edge12_Node000008_Node000005" class="edge">
<title>Node8&#45;&gt;Node5</title>
<g id="a_edge12_Node000008_Node000005"><a xlink:title=" ">
<path fill="none" stroke="#63b8ff" d="M208.73,-110.24C201.71,-96.86 191.37,-71.38 203.9,-55.25 221.12,-33.09 299.82,-20.1 345.6,-14.29"/>
<polygon fill="#63b8ff" stroke="#63b8ff" points="346.01,-17.77 355.52,-13.09 345.17,-10.82 346.01,-17.77"/>
</a>
</g>
</g>
<!-- Node8&#45;&gt;Node9 -->
<g id="edge11_Node000008_Node000009" class="edge">
<title>Node8&#45;&gt;Node9</title>
<g id="a_edge11_Node000008_Node000009"><a xlink:title=" ">
<path fill="none" stroke="#63b8ff" d="M187.1,-110.09C161.45,-101.45 122.51,-88.32 93.71,-78.62"/>
<polygon fill="#63b8ff" stroke="#63b8ff" points="94.86,-75.31 84.27,-75.44 92.63,-81.95 94.86,-75.31"/>
</a>
</g>
</g>
<!-- Node10 -->
<g id="Node000010" class="node">
<title>Node10</title>
<g id="a_Node000010"><a xlink:title=" ">
<polygon fill="#e0e0e0" stroke="#999999" points="255.03,-74.5 212.78,-74.5 212.78,-55.25 255.03,-55.25 255.03,-74.5"/>
<text text-anchor="middle" x="233.9" y="-61" font-family="Helvetica,sans-Serif" font-size="10.00">queue</text>
</a>
</g>
</g>
<!-- Node8&#45;&gt;Node10 -->
<g id="edge13_Node000008_Node000010" class="edge">
<title>Node8&#45;&gt;Node10</title>
<g id="a_edge13_Node000008_Node000010"><a xlink:title=" ">
<path fill="none" stroke="#63b8ff" d="M217.2,-110.33C219.74,-103.59 223.33,-94.02 226.53,-85.49"/>
<polygon fill="#63b8ff" stroke="#63b8ff" points="229.75,-86.87 229.99,-76.28 223.2,-84.41 229.75,-86.87"/>
</a>
</g>
</g>
<!-- Node11 -->
<g id="Node000011" class="node">
<title>Node11</title>
<g id="a_Node000011"><a xlink:title=" ">
<polygon fill="#e0e0e0" stroke="#999999" points="312.53,-74.5 273.28,-74.5 273.28,-55.25 312.53,-55.25 312.53,-74.5"/>
<text text-anchor="middle" x="292.9" y="-61" font-family="Helvetica,sans-Serif" font-size="10.00">limits</text>
</a>
</g>
</g>
<!-- Node8&#45;&gt;Node11 -->
<g id="edge14_Node000008_Node000011" class="edge">
<title>Node8&#45;&gt;Node11</title>
<g id="a_edge14_Node000008_Node000011"><a xlink:title=" ">
<path fill="none" stroke="#63b8ff" d="M227.3,-110.09C238.99,-102.21 256.2,-90.61 270.06,-81.27"/>
<polygon fill="#63b8ff" stroke="#63b8ff" points="271.84,-84.29 278.18,-75.8 267.93,-78.49 271.84,-84.29"/>
</a>
</g>
</g>
<!-- Node8&#45;&gt;Node12 -->
<g id="edge15_Node000008_Node000012" class="edge">
<title>Node8&#45;&gt;Node12</title>
<g id="a_edge15_Node000008_Node000012"><a xlink:title=" ">
<path fill="none" stroke="#63b8ff" d="M199.48,-110.09C186.78,-102.14 168.03,-90.39 153.04,-81"/>
<polygon fill="#63b8ff" stroke="#63b8ff" points="155.01,-78.1 144.67,-75.76 151.29,-84.03 155.01,-78.1"/>
</a>
</g>
</g>
<!-- Node13&#45;&gt;Node4 -->
<g id="edge17_Node000013_Node000004" class="edge">
<title>Node13&#45;&gt;Node4</title>
<g id="a_edge17_Node000013_Node000004"><a xlink:title=" ">
<path fill="none" stroke="#63b8ff" d="M666.4,-110.13C684.39,-103.37 705.37,-92.18 716.9,-74.5 725.19,-61.79 726.06,-44.49 725.07,-31.1"/>
<polygon fill="#63b8ff" stroke="#63b8ff" points="728.56,-30.76 723.91,-21.24 721.6,-31.58 728.56,-30.76"/>
</a>
</g>
</g>
<!-- Node14&#45;&gt;Node4 -->
<g id="edge19_Node000014_Node000004" class="edge">
<title>Node14&#45;&gt;Node4</title>
<g id="a_edge19_Node000014_Node000004"><a xlink:title=" ">
<path fill="none" stroke="#63b8ff" d="M523.43,-110.29C564.2,-100.81 624.73,-85.63 645.9,-74.5 669.15,-62.28 691.65,-41.98 706.05,-27.54"/>
<polygon fill="#63b8ff" stroke="#63b8ff" points="708.41,-30.14 712.86,-20.53 703.38,-25.27 708.41,-30.14"/>
</a>
</g>
</g>
<!-- Node14&#45;&gt;Node5 -->
<g id="edge21_Node000014_Node000005" class="edge">
<title>Node14&#45;&gt;Node5</title>
<g id="a_edge21_Node000014_Node000005"><a xlink:title=" ">
<path fill="none" stroke="#63b8ff" d="M480.07,-110.03C474.19,-96.83 461.9,-72.09 445.9,-55.25 434.66,-43.42 419.73,-33.1 406.82,-25.37"/>
<polygon fill="#63b8ff" stroke="#63b8ff" points="408.73,-22.43 398.32,-20.5 405.26,-28.51 408.73,-22.43"/>
</a>
</g>
</g>
<!-- Node14&#45;&gt;Node7 -->
<g id="edge20_Node000014_Node000007" class="edge">
<title>Node14&#45;&gt;Node7</title>
<g id="a_edge20_Node000014_Node000007"><a xlink:title=" ">
<path fill="none" stroke="#63b8ff" d="M473.38,-110.09C464.51,-102.47 451.59,-91.37 440.91,-82.2"/>
<polygon fill="#63b8ff" stroke="#63b8ff" points="443.28,-79.62 433.41,-75.76 438.72,-84.93 443.28,-79.62"/>
</a>
</g>
</g>
<!-- Node15 -->
<g id="Node000015" class="node">
<title>Node15</title>
<g id="a_Node000015"><a xlink:href="_live_range_8h.html" target="_top" xlink:title="Data model for a single live range of a variable.">
<polygon fill="white" stroke="#666666" points="636.53,-74.5 531.28,-74.5 531.28,-55.25 636.53,-55.25 636.53,-74.5"/>
<text text-anchor="middle" x="583.9" y="-61" font-family="Helvetica,sans-Serif" font-size="10.00">models/LiveRange.h</text>
</a>
</g>
</g>
<!-- Node14&#45;&gt;Node15 -->
<g id="edge22_Node000014_Node000015" class="edge">
<title>Node14&#45;&gt;Node15</title>
<g id="a_edge22_Node000014_Node000015"><a xlink:title=" ">
<path fill="none" stroke="#63b8ff" d="M500.86,-110.09C516.16,-101.94 538.93,-89.82 556.76,-80.33"/>
<polygon fill="#63b8ff" stroke="#63b8ff" points="558.34,-83.45 565.52,-75.66 555.05,-77.27 558.34,-83.45"/>
</a>
</g>
</g>
<!-- Node15&#45;&gt;Node4 -->
<g id="edge23_Node000015_Node000004" class="edge">
<title>Node15&#45;&gt;Node4</title>
<g id="a_edge23_Node000015_Node000004"><a xlink:title=" ">
<path fill="none" stroke="#63b8ff" d="M607.31,-54.84C630.35,-45.95 665.68,-32.32 691.01,-22.54"/>
<polygon fill="#63b8ff" stroke="#63b8ff" points="692.05,-25.9 700.12,-19.03 689.53,-19.37 692.05,-25.9"/>
</a>
</g>
</g>
<!-- Node15&#45;&gt;Node5 -->
<g id="edge24_Node000015_Node000005" class="edge">
<title>Node15&#45;&gt;Node5</title>
<g id="a_edge24_Node000015_Node000005"><a xlink:title=" ">
<path fill="none" stroke="#63b8ff" d="M549.13,-54.84C510.72,-44.87 449.35,-28.92 411.74,-19.15"/>
<polygon fill="#63b8ff" stroke="#63b8ff" points="412.9,-15.84 402.34,-16.71 411.14,-22.62 412.9,-15.84"/>
</a>
</g>
</g>
<!-- Node19&#45;&gt;Node3 -->
<g id="edge36_Node000019_Node000003" class="edge">
<title>Node19&#45;&gt;Node3</title>
<g id="a_edge36_Node000019_Node000003"><a xlink:title=" ">
<path fill="none" stroke="#63b8ff" d="M723.9,-165.58C723.9,-159.07 723.9,-149.92 723.9,-141.62"/>
<polygon fill="#63b8ff" stroke="#63b8ff" points="727.4,-141.62 723.9,-131.62 720.4,-141.62 727.4,-141.62"/>
</a>
</g>
</g>
<!-- Node19&#45;&gt;Node4 -->
<g id="edge37_Node000019_Node000004" class="edge">
<title>Node19&#45;&gt;Node4</title>
<g id="a_edge37_Node000019_Node000004"><a xlink:title=" ">
<path fill="none" stroke="#63b8ff" d="M744.04,-165.27C757.76,-157.85 774.83,-145.96 782.9,-129.75 786.71,-122.09 785.22,-118.74 782.9,-110.5 774,-78.85 751.98,-47.32 736.99,-28.39"/>
<polygon fill="#63b8ff" stroke="#63b8ff" points="739.89,-26.41 730.85,-20.88 734.47,-30.84 739.89,-26.41"/>
</a>
</g>
</g>
<!-- Node19&#45;&gt;Node5 -->
<g id="edge38_Node000019_Node000005" class="edge">
<title>Node19&#45;&gt;Node5</title>
<g id="a_edge38_Node000019_Node000005"><a xlink:title=" ">
<path fill="none" stroke="#63b8ff" d="M732.71,-165.6C744.94,-152.36 764.06,-127.07 749.9,-110.5 716.58,-71.5 571.08,-89.09 521.9,-74.5 479.37,-61.88 432.97,-39.4 404.9,-24.76"/>
<polygon fill="#63b8ff" stroke="#63b8ff" points="406.9,-21.86 396.43,-20.27 403.63,-28.04 406.9,-21.86"/>
</a>
</g>
</g>
<!-- Node19&#45;&gt;Node14 -->
<g id="edge39_Node000019_Node000014" class="edge">
<title>Node19&#45;&gt;Node14</title>
<g id="a_edge39_Node000019_Node000014"><a xlink:title=" ">
<path fill="none" stroke="#63b8ff" d="M682.92,-165.28C641.9,-156.18 578.73,-142.16 534.59,-132.37"/>
<polygon fill="#63b8ff" stroke="#63b8ff" points="535.52,-128.99 525,-130.24 534,-135.83 535.52,-128.99"/>
</a>
</g>
</g>
</g>
</svg>
