<?xml version="1.0" encoding="UTF-8" standalone="no"?>
<!DOCTYPE svg PUBLIC "-//W3C//DTD SVG 1.1//EN"
 "http://www.w3.org/Graphics/SVG/1.1/DTD/svg11.dtd">
<!-- Generated by graphviz version 12.2.1 (0)
 -->
<!-- Title: io/FileParser.cpp Pages: 1 -->
<svg width="614pt" height="193pt"
 viewBox="0.00 0.00 614.00 193.00" xmlns="http://www.w3.org/2000/svg" xmlns:xlink="http://www.w3.org/1999/xlink">
<g id="graph0" class="graph" transform="scale(1 1) rotate(0) translate(4 189)">
<title>io/FileParser.cpp</title>
<!-- Node1 -->
<g id="Node000001" class="node">
<title>Node1</title>
<g id="a_Node000001"><a xlink:title="Implementation of FileParser.">
<polygon fill="#999999" stroke="#666666" points="410.75,-185 322,-185 322,-165.75 410.75,-165.75 410.75,-185"/>
<text text-anchor="middle" x="366.38" y="-171.5" font-family="Helvetica,sans-Serif" font-size="10.00">io/FileParser.cpp</text>
</a>
</g>
</g>
<!-- Node2 -->
<g id="Node000002" class="node">
<title>Node2</title>
<g id="a_Node000002"><a xlink:href="_file_parser_8h.html" target="_top" xlink:title="Parses the live&#45;ranges input file and the registers/config file.">
<polygon fill="white" stroke="#666666" points="184.5,-129.75 106.25,-129.75 106.25,-110.5 184.5,-110.5 184.5,-129.75"/>
<text text-anchor="middle" x="145.38" y="-116.25" font-family="Helvetica,sans-Serif" font-size="10.00">io/FileParser.h</text>
</a>
</g>
</g>
<!-- Node1&#45;&gt;Node2 -->
<g id="edge1_Node000001_Node000002" class="edge">
<title>Node1&#45;&gt;Node2</title>
<g id="a_edge1_Node000001_Node000002"><a xlink:title=" ">
<path fill="none" stroke="#63b8ff" d="M328.63,-165.28C291.45,-156.32 234.47,-142.59 193.93,-132.82"/>
<polygon fill="#63b8ff" stroke="#63b8ff" points="194.97,-129.48 184.43,-130.54 193.33,-136.28 194.97,-129.48"/>
</a>
</g>
</g>
<!-- Node8 -->
<g id="Node000008" class="node">
<title>Node8</title>
<g id="a_Node000008"><a xlink:title=" ">
<polygon fill="#e0e0e0" stroke="#999999" points="251.88,-129.75 202.88,-129.75 202.88,-110.5 251.88,-110.5 251.88,-129.75"/>
<text text-anchor="middle" x="227.38" y="-116.25" font-family="Helvetica,sans-Serif" font-size="10.00">fstream</text>
</a>
</g>
</g>
<!-- Node1&#45;&gt;Node8 -->
<g id="edge10_Node000001_Node000008" class="edge">
<title>Node1&#45;&gt;Node8</title>
<g id="a_edge10_Node000001_Node000008"><a xlink:title=" ">
<path fill="none" stroke="#63b8ff" d="M342.8,-165.34C320.53,-156.81 286.88,-143.92 261.65,-134.26"/>
<polygon fill="#63b8ff" stroke="#63b8ff" points="263.07,-131.05 252.48,-130.74 260.57,-137.59 263.07,-131.05"/>
</a>
</g>
</g>
<!-- Node9 -->
<g id="Node000009" class="node">
<title>Node9</title>
<g id="a_Node000009"><a xlink:title=" ">
<polygon fill="#e0e0e0" stroke="#999999" points="323.12,-129.75 269.62,-129.75 269.62,-110.5 323.12,-110.5 323.12,-129.75"/>
<text text-anchor="middle" x="296.38" y="-116.25" font-family="Helvetica,sans-Serif" font-size="10.00">iostream</text>
</a>
</g>
</g>
<!-- Node1&#45;&gt;Node9 -->
<g id="edge11_Node000001_Node000009" class="edge">
<title>Node1&#45;&gt;Node9</title>
<g id="a_edge11_Node000001_Node000009"><a xlink:title=" ">
<path fill="none" stroke="#63b8ff" d="M354.5,-165.34C344.28,-157.57 329.3,-146.17 317.11,-136.9"/>
<polygon fill="#63b8ff" stroke="#63b8ff" points="319.36,-134.21 309.28,-130.94 315.12,-139.78 319.36,-134.21"/>
</a>
</g>
</g>
<!-- Node10 -->
<g id="Node000010" class="node">
<title>Node10</title>
<g id="a_Node000010"><a xlink:title=" ">
<polygon fill="#e0e0e0" stroke="#999999" points="392,-129.75 340.75,-129.75 340.75,-110.5 392,-110.5 392,-129.75"/>
<text text-anchor="middle" x="366.38" y="-116.25" font-family="Helvetica,sans-Serif" font-size="10.00">sstream</text>
</a>
</g>
</g>
<!-- Node1&#45;&gt;Node10 -->
<g id="edge12_Node000001_Node000010" class="edge">
<title>Node1&#45;&gt;Node10</title>
<g id="a_edge12_Node000001_Node000010"><a xlink:title=" ">
<path fill="none" stroke="#63b8ff" d="M366.38,-165.58C366.38,-159.07 366.38,-149.92 366.38,-141.62"/>
<polygon fill="#63b8ff" stroke="#63b8ff" points="369.88,-141.62 366.38,-131.62 362.88,-141.62 369.88,-141.62"/>
</a>
</g>
</g>
<!-- Node11 -->
<g id="Node000011" class="node">
<title>Node11</title>
<g id="a_Node000011"><a xlink:title=" ">
<polygon fill="#e0e0e0" stroke="#999999" points="468.75,-129.75 410,-129.75 410,-110.5 468.75,-110.5 468.75,-129.75"/>
<text text-anchor="middle" x="439.38" y="-116.25" font-family="Helvetica,sans-Serif" font-size="10.00">stdexcept</text>
</a>
</g>
</g>
<!-- Node1&#45;&gt;Node11 -->
<g id="edge13_Node000001_Node000011" class="edge">
<title>Node1&#45;&gt;Node11</title>
<g id="a_edge13_Node000001_Node000011"><a xlink:title=" ">
<path fill="none" stroke="#63b8ff" d="M378.76,-165.34C389.52,-157.49 405.35,-145.95 418.13,-136.62"/>
<polygon fill="#63b8ff" stroke="#63b8ff" points="419.94,-139.64 425.95,-130.92 415.81,-133.98 419.94,-139.64"/>
</a>
</g>
</g>
<!-- Node12 -->
<g id="Node000012" class="node">
<title>Node12</title>
<g id="a_Node000012"><a xlink:title=" ">
<polygon fill="#e0e0e0" stroke="#999999" points="542.25,-129.75 486.5,-129.75 486.5,-110.5 542.25,-110.5 542.25,-129.75"/>
<text text-anchor="middle" x="514.38" y="-116.25" font-family="Helvetica,sans-Serif" font-size="10.00">algorithm</text>
</a>
</g>
</g>
<!-- Node1&#45;&gt;Node12 -->
<g id="edge14_Node000001_Node000012" class="edge">
<title>Node1&#45;&gt;Node12</title>
<g id="a_edge14_Node000001_Node000012"><a xlink:title=" ">
<path fill="none" stroke="#63b8ff" d="M391.48,-165.34C415.4,-156.74 451.66,-143.69 478.6,-134"/>
<polygon fill="#63b8ff" stroke="#63b8ff" points="479.5,-137.39 487.72,-130.71 477.13,-130.81 479.5,-137.39"/>
</a>
</g>
</g>
<!-- Node13 -->
<g id="Node000013" class="node">
<title>Node13</title>
<g id="a_Node000013"><a xlink:title=" ">
<polygon fill="#e0e0e0" stroke="#999999" points="606,-129.75 560.75,-129.75 560.75,-110.5 606,-110.5 606,-129.75"/>
<text text-anchor="middle" x="583.38" y="-116.25" font-family="Helvetica,sans-Serif" font-size="10.00">cctype</text>
</a>
</g>
</g>
<!-- Node1&#45;&gt;Node13 -->
<g id="edge15_Node000001_Node000013" class="edge">
<title>Node1&#45;&gt;Node13</title>
<g id="a_edge15_Node000001_Node000013"><a xlink:title=" ">
<path fill="none" stroke="#63b8ff" d="M405.43,-165.27C440.58,-157.01 493.92,-144.3 549.24,-130.24"/>
<polygon fill="#63b8ff" stroke="#63b8ff" points="550.03,-133.65 558.86,-127.79 548.3,-126.87 550.03,-133.65"/>
</a>
</g>
</g>
<!-- Node3 -->
<g id="Node000003" class="node">
<title>Node3</title>
<g id="a_Node000003"><a xlink:title=" ">
<polygon fill="#e0e0e0" stroke="#999999" points="34.75,-74.5 0,-74.5 0,-55.25 34.75,-55.25 34.75,-74.5"/>
<text text-anchor="middle" x="17.38" y="-61" font-family="Helvetica,sans-Serif" font-size="10.00">map</text>
</a>
</g>
</g>
<!-- Node2&#45;&gt;Node3 -->
<g id="edge2_Node000002_Node000003" class="edge">
<title>Node2&#45;&gt;Node3</title>
<g id="a_edge2_Node000002_Node000003"><a xlink:title=" ">
<path fill="none" stroke="#63b8ff" d="M123.66,-110.09C102.11,-101.13 68.98,-87.34 45.44,-77.55"/>
<polygon fill="#63b8ff" stroke="#63b8ff" points="47.04,-74.43 36.46,-73.82 44.35,-80.89 47.04,-74.43"/>
</a>
</g>
</g>
<!-- Node4 -->
<g id="Node000004" class="node">
<title>Node4</title>
<g id="a_Node000004"><a xlink:title=" ">
<polygon fill="#e0e0e0" stroke="#999999" points="165.38,-19.25 125.38,-19.25 125.38,0 165.38,0 165.38,-19.25"/>
<text text-anchor="middle" x="145.38" y="-5.75" font-family="Helvetica,sans-Serif" font-size="10.00">string</text>
</a>
</g>
</g>
<!-- Node2&#45;&gt;Node4 -->
<g id="edge3_Node000002_Node000004" class="edge">
<title>Node2&#45;&gt;Node4</title>
<g id="a_edge3_Node000002_Node000004"><a xlink:title=" ">
<path fill="none" stroke="#63b8ff" d="M122.95,-110.14C108.2,-102.91 90.09,-91.19 81.38,-74.5 70.64,-53.93 93.64,-35.82 114.99,-24.18"/>
<polygon fill="#63b8ff" stroke="#63b8ff" points="116.51,-27.34 123.84,-19.7 113.34,-21.1 116.51,-27.34"/>
</a>
</g>
</g>
<!-- Node5 -->
<g id="Node000005" class="node">
<title>Node5</title>
<g id="a_Node000005"><a xlink:title=" ">
<polygon fill="#e0e0e0" stroke="#999999" points="331.88,-19.25 288.88,-19.25 288.88,0 331.88,0 331.88,-19.25"/>
<text text-anchor="middle" x="310.38" y="-5.75" font-family="Helvetica,sans-Serif" font-size="10.00">vector</text>
</a>
</g>
</g>
<!-- Node2&#45;&gt;Node5 -->
<g id="edge4_Node000002_Node000005" class="edge">
<title>Node2&#45;&gt;Node5</title>
<g id="a_edge4_Node000002_Node000005"><a xlink:title=" ">
<path fill="none" stroke="#63b8ff" d="M184.7,-111.03C238.17,-99.84 327.75,-80.36 332.38,-74.5 343.02,-61.02 334.28,-42.06 324.86,-28.3"/>
<polygon fill="#63b8ff" stroke="#63b8ff" points="327.85,-26.46 319.05,-20.56 322.26,-30.66 327.85,-26.46"/>
</a>
</g>
</g>
<!-- Node6 -->
<g id="Node000006" class="node">
<title>Node6</title>
<g id="a_Node000006"><a xlink:href="_live_range_8h.html" target="_top" xlink:title="Data model for a single live range of a variable.">
<polygon fill="white" stroke="#666666" points="323,-74.5 217.75,-74.5 217.75,-55.25 323,-55.25 323,-74.5"/>
<text text-anchor="middle" x="270.38" y="-61" font-family="Helvetica,sans-Serif" font-size="10.00">models/LiveRange.h</text>
</a>
</g>
</g>
<!-- Node2&#45;&gt;Node6 -->
<g id="edge5_Node000002_Node000006" class="edge">
<title>Node2&#45;&gt;Node6</title>
<g id="a_edge5_Node000002_Node000006"><a xlink:title=" ">
<path fill="none" stroke="#63b8ff" d="M166.58,-110.09C186.33,-101.68 216.05,-89.02 238.63,-79.4"/>
<polygon fill="#63b8ff" stroke="#63b8ff" points="239.85,-82.68 247.67,-75.55 237.1,-76.24 239.85,-82.68"/>
</a>
</g>
</g>
<!-- Node7 -->
<g id="Node000007" class="node">
<title>Node7</title>
<g id="a_Node000007"><a xlink:href="_parameters_8h.html" target="_top" xlink:title="Configuration parameters parsed from the registers/config input file.">
<polygon fill="white" stroke="#666666" points="199.88,-74.5 90.88,-74.5 90.88,-55.25 199.88,-55.25 199.88,-74.5"/>
<text text-anchor="middle" x="145.38" y="-61" font-family="Helvetica,sans-Serif" font-size="10.00">models/Parameters.h</text>
</a>
</g>
</g>
<!-- Node2&#45;&gt;Node7 -->
<g id="edge8_Node000002_Node000007" class="edge">
<title>Node2&#45;&gt;Node7</title>
<g id="a_edge8_Node000002_Node000007"><a xlink:title=" ">
<path fill="none" stroke="#63b8ff" d="M145.38,-110.33C145.38,-103.82 145.38,-94.67 145.38,-86.37"/>
<polygon fill="#63b8ff" stroke="#63b8ff" points="148.88,-86.37 145.38,-76.37 141.88,-86.37 148.88,-86.37"/>
</a>
</g>
</g>
<!-- Node6&#45;&gt;Node4 -->
<g id="edge6_Node000006_Node000004" class="edge">
<title>Node6&#45;&gt;Node4</title>
<g id="a_edge6_Node000006_Node000004"><a xlink:title=" ">
<path fill="none" stroke="#63b8ff" d="M249.17,-54.84C229.18,-46.32 198.98,-33.46 176.3,-23.8"/>
<polygon fill="#63b8ff" stroke="#63b8ff" points="177.82,-20.64 167.24,-19.94 175.07,-27.08 177.82,-20.64"/>
</a>
</g>
</g>
<!-- Node6&#45;&gt;Node5 -->
<g id="edge7_Node000006_Node000005" class="edge">
<title>Node6&#45;&gt;Node5</title>
<g id="a_edge7_Node000006_Node000005"><a xlink:title=" ">
<path fill="none" stroke="#63b8ff" d="M276.98,-55.08C282.33,-47.96 290.05,-37.68 296.72,-28.8"/>
<polygon fill="#63b8ff" stroke="#63b8ff" points="299.51,-30.92 302.72,-20.82 293.91,-26.71 299.51,-30.92"/>
</a>
</g>
</g>
<!-- Node7&#45;&gt;Node4 -->
<g id="edge9_Node000007_Node000004" class="edge">
<title>Node7&#45;&gt;Node4</title>
<g id="a_edge9_Node000007_Node000004"><a xlink:title=" ">
<path fill="none" stroke="#63b8ff" d="M145.38,-55.08C145.38,-48.57 145.38,-39.42 145.38,-31.12"/>
<polygon fill="#63b8ff" stroke="#63b8ff" points="148.88,-31.12 145.38,-21.12 141.88,-31.12 148.88,-31.12"/>
</a>
</g>
</g>
</g>
</svg>
