<?xml version="1.0" encoding="UTF-8" standalone="no"?>
<!DOCTYPE svg PUBLIC "-//W3C//DTD SVG 1.1//EN"
 "http://www.w3.org/Graphics/SVG/1.1/DTD/svg11.dtd">
<!-- Generated by graphviz version 12.2.1 (0)
 -->
<!-- Title: algorithms/GraphColoring.cpp Pages: 1 -->
<svg width="793pt" height="260pt"
 viewBox="0.00 0.00 793.38 259.50" xmlns="http://www.w3.org/2000/svg" xmlns:xlink="http://www.w3.org/1999/xlink">
<g id="graph0" class="graph" transform="scale(1 1) rotate(0) translate(4 255.5)">
<title>algorithms/GraphColoring.cpp</title>
<!-- Node1 -->
<g id="Node000001" class="node">
<title>Node1</title>
<g id="a_Node000001"><a xlink:title="Implementations of graph&#45;coloring register allocation algorithms.">
<polygon fill="#999999" stroke="#666666" points="513,-251.5 368,-251.5 368,-232.25 513,-232.25 513,-251.5"/>
<text text-anchor="middle" x="440.5" y="-238" font-family="Helvetica,sans-Serif" font-size="10.00">algorithms/GraphColoring.cpp</text>
</a>
</g>
</g>
<!-- Node2 -->
<g id="Node000002" class="node">
<title>Node2</title>
<g id="a_Node000002"><a xlink:href="_graph_coloring_8h.html" target="_top" xlink:title="Graph&#45;coloring&#45;based register allocation algorithms.">
<polygon fill="white" stroke="#666666" points="256.75,-190.62 122.25,-190.62 122.25,-171.38 256.75,-171.38 256.75,-190.62"/>
<text text-anchor="middle" x="189.5" y="-177.12" font-family="Helvetica,sans-Serif" font-size="10.00">algorithms/GraphColoring.h</text>
</a>
</g>
</g>
<!-- Node1&#45;&gt;Node2 -->
<g id="edge1_Node000001_Node000002" class="edge">
<title>Node1&#45;&gt;Node2</title>
<g id="a_edge1_Node000001_Node000002"><a xlink:title=" ">
<path fill="none" stroke="#63b8ff" d="M401.83,-231.8C358.16,-221.56 286.99,-204.87 239.22,-193.66"/>
<polygon fill="#63b8ff" stroke="#63b8ff" points="240.22,-190.3 229.69,-191.43 238.62,-197.12 240.22,-190.3"/>
</a>
</g>
</g>
<!-- Node3 -->
<g id="Node000003" class="node">
<title>Node3</title>
<g id="a_Node000003"><a xlink:title=" ">
<polygon fill="#e0e0e0" stroke="#999999" points="161.88,-129.75 127.12,-129.75 127.12,-110.5 161.88,-110.5 161.88,-129.75"/>
<text text-anchor="middle" x="144.5" y="-116.25" font-family="Helvetica,sans-Serif" font-size="10.00">map</text>
</a>
</g>
</g>
<!-- Node1&#45;&gt;Node3 -->
<g id="edge19_Node000001_Node000003" class="edge">
<title>Node1&#45;&gt;Node3</title>
<g id="a_edge19_Node000001_Node000003"><a xlink:title=" ">
<path fill="none" stroke="#63b8ff" d="M367.7,-241.6C281.58,-240.71 145.81,-233.27 113.5,-196.25 98.78,-179.39 114.21,-154.58 128.07,-138.15"/>
<polygon fill="#63b8ff" stroke="#63b8ff" points="130.31,-140.88 134.4,-131.11 125.11,-136.2 130.31,-140.88"/>
</a>
</g>
</g>
<!-- Node6 -->
<g id="Node000006" class="node">
<title>Node6</title>
<g id="a_Node000006"><a xlink:title=" ">
<polygon fill="#e0e0e0" stroke="#999999" points="654.25,-74.5 600.75,-74.5 600.75,-55.25 654.25,-55.25 654.25,-74.5"/>
<text text-anchor="middle" x="627.5" y="-61" font-family="Helvetica,sans-Serif" font-size="10.00">iostream</text>
</a>
</g>
</g>
<!-- Node1&#45;&gt;Node6 -->
<g id="edge21_Node000001_Node000006" class="edge">
<title>Node1&#45;&gt;Node6</title>
<g id="a_edge21_Node000001_Node000006"><a xlink:title=" ">
<path fill="none" stroke="#63b8ff" d="M477.25,-231.78C523.21,-218.22 599.92,-187.83 633.5,-129.75 641.18,-116.46 638.86,-98.97 635.07,-85.65"/>
<polygon fill="#63b8ff" stroke="#63b8ff" points="638.42,-84.63 631.91,-76.27 631.78,-86.86 638.42,-84.63"/>
</a>
</g>
</g>
<!-- Node8 -->
<g id="Node000008" class="node">
<title>Node8</title>
<g id="a_Node000008"><a xlink:title=" ">
<polygon fill="#e0e0e0" stroke="#999999" points="711.12,-74.5 671.88,-74.5 671.88,-55.25 711.12,-55.25 711.12,-74.5"/>
<text text-anchor="middle" x="691.5" y="-61" font-family="Helvetica,sans-Serif" font-size="10.00">limits</text>
</a>
</g>
</g>
<!-- Node1&#45;&gt;Node8 -->
<g id="edge23_Node000001_Node000008" class="edge">
<title>Node1&#45;&gt;Node8</title>
<g id="a_edge23_Node000001_Node000008"><a xlink:title=" ">
<path fill="none" stroke="#63b8ff" d="M505.46,-231.78C535.34,-225.34 570.14,-214.47 597.5,-196.25 639.76,-168.11 669.43,-114.12 683.06,-85.23"/>
<polygon fill="#63b8ff" stroke="#63b8ff" points="686.2,-86.79 687.15,-76.24 679.82,-83.89 686.2,-86.79"/>
</a>
</g>
</g>
<!-- Node9 -->
<g id="Node000009" class="node">
<title>Node9</title>
<g id="a_Node000009"><a xlink:title=" ">
<polygon fill="#e0e0e0" stroke="#999999" points="785.38,-74.5 729.62,-74.5 729.62,-55.25 785.38,-55.25 785.38,-74.5"/>
<text text-anchor="middle" x="757.5" y="-61" font-family="Helvetica,sans-Serif" font-size="10.00">algorithm</text>
</a>
</g>
</g>
<!-- Node1&#45;&gt;Node9 -->
<g id="edge22_Node000001_Node000009" class="edge">
<title>Node1&#45;&gt;Node9</title>
<g id="a_edge22_Node000001_Node000009"><a xlink:title=" ">
<path fill="none" stroke="#63b8ff" d="M513.17,-233.04C549.28,-226.85 592.56,-215.82 627.5,-196.25 678.91,-167.45 723.7,-112.52 744.74,-84.03"/>
<polygon fill="#63b8ff" stroke="#63b8ff" points="747.48,-86.21 750.49,-76.05 741.8,-82.11 747.48,-86.21"/>
</a>
</g>
</g>
<!-- Node13 -->
<g id="Node000013" class="node">
<title>Node13</title>
<g id="a_Node000013"><a xlink:title=" ">
<polygon fill="#e0e0e0" stroke="#999999" points="446.25,-74.5 416.75,-74.5 416.75,-55.25 446.25,-55.25 446.25,-74.5"/>
<text text-anchor="middle" x="431.5" y="-61" font-family="Helvetica,sans-Serif" font-size="10.00">set</text>
</a>
</g>
</g>
<!-- Node1&#45;&gt;Node13 -->
<g id="edge20_Node000001_Node000013" class="edge">
<title>Node1&#45;&gt;Node13</title>
<g id="a_edge20_Node000001_Node000013"><a xlink:title=" ">
<path fill="none" stroke="#63b8ff" d="M440.04,-231.96C438.66,-205.05 434.5,-124.19 432.54,-86.12"/>
<polygon fill="#63b8ff" stroke="#63b8ff" points="436.06,-86.3 432.05,-76.5 429.06,-86.66 436.06,-86.3"/>
</a>
</g>
</g>
<!-- Node15 -->
<g id="Node000015" class="node">
<title>Node15</title>
<g id="a_Node000015"><a xlink:href="_interference_graph_8h.html" target="_top" xlink:title="Builds live webs and the interference graph from parsed live ranges.">
<polygon fill="white" stroke="#666666" points="412.62,-196.25 274.38,-196.25 274.38,-165.75 412.62,-165.75 412.62,-196.25"/>
<text text-anchor="start" x="282.38" y="-182.75" font-family="Helvetica,sans-Serif" font-size="10.00">data_structures/Interference</text>
<text text-anchor="middle" x="343.5" y="-171.5" font-family="Helvetica,sans-Serif" font-size="10.00">Graph.h</text>
</a>
</g>
</g>
<!-- Node1&#45;&gt;Node15 -->
<g id="edge24_Node000001_Node000015" class="edge">
<title>Node1&#45;&gt;Node15</title>
<g id="a_edge24_Node000001_Node000015"><a xlink:title=" ">
<path fill="none" stroke="#63b8ff" d="M425.77,-231.93C412.83,-224.08 393.53,-212.37 376.88,-202.26"/>
<polygon fill="#63b8ff" stroke="#63b8ff" points="379.1,-199.51 368.74,-197.32 375.47,-205.5 379.1,-199.51"/>
</a>
</g>
</g>
<!-- Node2&#45;&gt;Node3 -->
<g id="edge2_Node000002_Node000003" class="edge">
<title>Node2&#45;&gt;Node3</title>
<g id="a_edge2_Node000002_Node000003"><a xlink:title=" ">
<path fill="none" stroke="#63b8ff" d="M182.67,-171.06C176.19,-162.59 166.28,-149.62 158.18,-139.02"/>
<polygon fill="#63b8ff" stroke="#63b8ff" points="161.17,-137.17 152.32,-131.35 155.61,-141.42 161.17,-137.17"/>
</a>
</g>
</g>
<!-- Node4 -->
<g id="Node000004" class="node">
<title>Node4</title>
<g id="a_Node000004"><a xlink:title=" ">
<polygon fill="#e0e0e0" stroke="#999999" points="368,-19.25 325,-19.25 325,0 368,0 368,-19.25"/>
<text text-anchor="middle" x="346.5" y="-5.75" font-family="Helvetica,sans-Serif" font-size="10.00">vector</text>
</a>
</g>
</g>
<!-- Node2&#45;&gt;Node4 -->
<g id="edge3_Node000002_Node000004" class="edge">
<title>Node2&#45;&gt;Node4</title>
<g id="a_edge3_Node000002_Node000004"><a xlink:title=" ">
<path fill="none" stroke="#63b8ff" d="M194.17,-170.94C205.78,-149.06 237.82,-92.36 276.5,-55.25 288.85,-43.4 304.8,-32.95 318.36,-25.14"/>
<polygon fill="#63b8ff" stroke="#63b8ff" points="319.78,-28.35 326.83,-20.44 316.39,-22.23 319.78,-28.35"/>
</a>
</g>
</g>
<!-- Node5 -->
<g id="Node000005" class="node">
<title>Node5</title>
<g id="a_Node000005"><a xlink:href="_graph_8h.html" target="_top" xlink:title=" ">
<polygon fill="white" stroke="#666666" points="624,-129.75 503,-129.75 503,-110.5 624,-110.5 624,-129.75"/>
<text text-anchor="middle" x="563.5" y="-116.25" font-family="Helvetica,sans-Serif" font-size="10.00">data_structures/Graph.h</text>
</a>
</g>
</g>
<!-- Node2&#45;&gt;Node5 -->
<g id="edge4_Node000002_Node000005" class="edge">
<title>Node2&#45;&gt;Node5</title>
<g id="a_edge4_Node000002_Node000005"><a xlink:title=" ">
<path fill="none" stroke="#63b8ff" d="M236.48,-170.91C246.07,-169.14 256.1,-167.33 265.5,-165.75 342.43,-152.78 430.87,-139.78 491.29,-131.18"/>
<polygon fill="#63b8ff" stroke="#63b8ff" points="491.71,-134.66 501.11,-129.79 490.72,-127.73 491.71,-134.66"/>
</a>
</g>
</g>
<!-- Node10 -->
<g id="Node000010" class="node">
<title>Node10</title>
<g id="a_Node000010"><a xlink:href="_parameters_8h.html" target="_top" xlink:title="Configuration parameters parsed from the registers/config input file.">
<polygon fill="white" stroke="#666666" points="109,-129.75 0,-129.75 0,-110.5 109,-110.5 109,-129.75"/>
<text text-anchor="middle" x="54.5" y="-116.25" font-family="Helvetica,sans-Serif" font-size="10.00">models/Parameters.h</text>
</a>
</g>
</g>
<!-- Node2&#45;&gt;Node10 -->
<g id="edge10_Node000002_Node000010" class="edge">
<title>Node2&#45;&gt;Node10</title>
<g id="a_edge10_Node000002_Node000010"><a xlink:title=" ">
<path fill="none" stroke="#63b8ff" d="M168.7,-170.93C146.44,-161.22 110.88,-145.71 85.36,-134.58"/>
<polygon fill="#63b8ff" stroke="#63b8ff" points="87.05,-131.5 76.49,-130.71 84.25,-137.92 87.05,-131.5"/>
</a>
</g>
</g>
<!-- Node12 -->
<g id="Node000012" class="node">
<title>Node12</title>
<g id="a_Node000012"><a xlink:href="_web_8h.html" target="_top" xlink:title="Data model for a live web (merged live ranges of a variable).">
<polygon fill="white" stroke="#666666" points="333.62,-129.75 255.38,-129.75 255.38,-110.5 333.62,-110.5 333.62,-129.75"/>
<text text-anchor="middle" x="294.5" y="-116.25" font-family="Helvetica,sans-Serif" font-size="10.00">models/Web.h</text>
</a>
</g>
</g>
<!-- Node2&#45;&gt;Node12 -->
<g id="edge12_Node000002_Node000012" class="edge">
<title>Node2&#45;&gt;Node12</title>
<g id="a_edge12_Node000002_Node000012"><a xlink:title=" ">
<path fill="none" stroke="#63b8ff" d="M205.45,-171.06C222.18,-161.68 248.73,-146.79 268.5,-135.7"/>
<polygon fill="#63b8ff" stroke="#63b8ff" points="270.07,-138.83 277.08,-130.89 266.65,-132.73 270.07,-138.83"/>
</a>
</g>
</g>
<!-- Node5&#45;&gt;Node4 -->
<g id="edge6_Node000005_Node000004" class="edge">
<title>Node5&#45;&gt;Node4</title>
<g id="a_edge6_Node000005_Node000004"><a xlink:title=" ">
<path fill="none" stroke="#63b8ff" d="M564.94,-110.37C566.64,-96.69 567.68,-70.26 553.5,-55.25 530.08,-30.46 431.87,-18.16 379.58,-13.27"/>
<polygon fill="#63b8ff" stroke="#63b8ff" points="380.04,-9.8 369.77,-12.39 379.42,-16.77 380.04,-9.8"/>
</a>
</g>
</g>
<!-- Node5&#45;&gt;Node6 -->
<g id="edge5_Node000005_Node000006" class="edge">
<title>Node5&#45;&gt;Node6</title>
<g id="a_edge5_Node000005_Node000006"><a xlink:title=" ">
<path fill="none" stroke="#63b8ff" d="M574.36,-110.09C583.61,-102.4 597.12,-91.15 608.21,-81.93"/>
<polygon fill="#63b8ff" stroke="#63b8ff" points="610.19,-84.83 615.64,-75.74 605.71,-79.45 610.19,-84.83"/>
</a>
</g>
</g>
<!-- Node7 -->
<g id="Node000007" class="node">
<title>Node7</title>
<g id="a_Node000007"><a xlink:title=" ">
<polygon fill="#e0e0e0" stroke="#999999" points="544.62,-74.5 502.38,-74.5 502.38,-55.25 544.62,-55.25 544.62,-74.5"/>
<text text-anchor="middle" x="523.5" y="-61" font-family="Helvetica,sans-Serif" font-size="10.00">queue</text>
</a>
</g>
</g>
<!-- Node5&#45;&gt;Node7 -->
<g id="edge7_Node000005_Node000007" class="edge">
<title>Node5&#45;&gt;Node7</title>
<g id="a_edge7_Node000005_Node000007"><a xlink:title=" ">
<path fill="none" stroke="#63b8ff" d="M556.89,-110.33C551.54,-103.21 543.82,-92.93 537.15,-84.05"/>
<polygon fill="#63b8ff" stroke="#63b8ff" points="539.96,-81.96 531.16,-76.07 534.37,-86.17 539.96,-81.96"/>
</a>
</g>
</g>
<!-- Node5&#45;&gt;Node8 -->
<g id="edge8_Node000005_Node000008" class="edge">
<title>Node5&#45;&gt;Node8</title>
<g id="a_edge8_Node000005_Node000008"><a xlink:title=" ">
<path fill="none" stroke="#63b8ff" d="M585.21,-110.09C606.15,-101.38 638.01,-88.13 661.39,-78.4"/>
<polygon fill="#63b8ff" stroke="#63b8ff" points="662.5,-81.73 670.39,-74.66 659.81,-75.27 662.5,-81.73"/>
</a>
</g>
</g>
<!-- Node5&#45;&gt;Node9 -->
<g id="edge9_Node000005_Node000009" class="edge">
<title>Node5&#45;&gt;Node9</title>
<g id="a_edge9_Node000005_Node000009"><a xlink:title=" ">
<path fill="none" stroke="#63b8ff" d="M596.41,-110.09C630.06,-100.85 682.35,-86.5 718.16,-76.67"/>
<polygon fill="#63b8ff" stroke="#63b8ff" points="718.99,-80.07 727.71,-74.05 717.14,-73.32 718.99,-80.07"/>
</a>
</g>
</g>
<!-- Node11 -->
<g id="Node000011" class="node">
<title>Node11</title>
<g id="a_Node000011"><a xlink:title=" ">
<polygon fill="#e0e0e0" stroke="#999999" points="209.5,-19.25 169.5,-19.25 169.5,0 209.5,0 209.5,-19.25"/>
<text text-anchor="middle" x="189.5" y="-5.75" font-family="Helvetica,sans-Serif" font-size="10.00">string</text>
</a>
</g>
</g>
<!-- Node10&#45;&gt;Node11 -->
<g id="edge11_Node000010_Node000011" class="edge">
<title>Node10&#45;&gt;Node11</title>
<g id="a_edge11_Node000010_Node000011"><a xlink:title=" ">
<path fill="none" stroke="#63b8ff" d="M65.55,-110.25C88.29,-91.97 140.63,-49.9 169.49,-26.71"/>
<polygon fill="#63b8ff" stroke="#63b8ff" points="171.52,-29.57 177.12,-20.57 167.13,-24.11 171.52,-29.57"/>
</a>
</g>
</g>
<!-- Node12&#45;&gt;Node4 -->
<g id="edge15_Node000012_Node000004" class="edge">
<title>Node12&#45;&gt;Node4</title>
<g id="a_edge15_Node000012_Node000004"><a xlink:title=" ">
<path fill="none" stroke="#63b8ff" d="M289.94,-110.33C283.97,-97.51 275.29,-73.23 284.5,-55.25 291.11,-42.34 303.39,-32.32 315.29,-25.07"/>
<polygon fill="#63b8ff" stroke="#63b8ff" points="316.7,-28.29 323.74,-20.37 313.3,-22.17 316.7,-28.29"/>
</a>
</g>
</g>
<!-- Node12&#45;&gt;Node11 -->
<g id="edge13_Node000012_Node000011" class="edge">
<title>Node12&#45;&gt;Node11</title>
<g id="a_edge13_Node000012_Node000011"><a xlink:title=" ">
<path fill="none" stroke="#63b8ff" d="M285.91,-110.25C268.45,-92.21 228.57,-51 205.95,-27.63"/>
<polygon fill="#63b8ff" stroke="#63b8ff" points="208.73,-25.47 199.26,-20.71 203.7,-30.33 208.73,-25.47"/>
</a>
</g>
</g>
<!-- Node12&#45;&gt;Node13 -->
<g id="edge14_Node000012_Node000013" class="edge">
<title>Node12&#45;&gt;Node13</title>
<g id="a_edge14_Node000012_Node000013"><a xlink:title=" ">
<path fill="none" stroke="#63b8ff" d="M317.74,-110.09C342.23,-100.57 380.71,-85.62 406.02,-75.78"/>
<polygon fill="#63b8ff" stroke="#63b8ff" points="407.16,-79.09 415.21,-72.21 404.62,-72.57 407.16,-79.09"/>
</a>
</g>
</g>
<!-- Node14 -->
<g id="Node000014" class="node">
<title>Node14</title>
<g id="a_Node000014"><a xlink:href="_live_range_8h.html" target="_top" xlink:title="Data model for a single live range of a variable.">
<polygon fill="white" stroke="#666666" points="399.12,-74.5 293.88,-74.5 293.88,-55.25 399.12,-55.25 399.12,-74.5"/>
<text text-anchor="middle" x="346.5" y="-61" font-family="Helvetica,sans-Serif" font-size="10.00">models/LiveRange.h</text>
</a>
</g>
</g>
<!-- Node12&#45;&gt;Node14 -->
<g id="edge16_Node000012_Node000014" class="edge">
<title>Node12&#45;&gt;Node14</title>
<g id="a_edge16_Node000012_Node000014"><a xlink:title=" ">
<path fill="none" stroke="#63b8ff" d="M303.09,-110.33C310.34,-102.9 320.95,-92.04 329.87,-82.91"/>
<polygon fill="#63b8ff" stroke="#63b8ff" points="332.19,-85.54 336.67,-75.94 327.18,-80.65 332.19,-85.54"/>
</a>
</g>
</g>
<!-- Node14&#45;&gt;Node4 -->
<g id="edge18_Node000014_Node000004" class="edge">
<title>Node14&#45;&gt;Node4</title>
<g id="a_edge18_Node000014_Node000004"><a xlink:title=" ">
<path fill="none" stroke="#63b8ff" d="M346.5,-55.08C346.5,-48.57 346.5,-39.42 346.5,-31.12"/>
<polygon fill="#63b8ff" stroke="#63b8ff" points="350,-31.12 346.5,-21.12 343,-31.12 350,-31.12"/>
</a>
</g>
</g>
<!-- Node14&#45;&gt;Node11 -->
<g id="edge17_Node000014_Node000011" class="edge">
<title>Node14&#45;&gt;Node11</title>
<g id="a_edge17_Node000014_Node000011"><a xlink:title=" ">
<path fill="none" stroke="#63b8ff" d="M319.87,-54.84C292.37,-45.52 249.51,-30.98 220.51,-21.14"/>
<polygon fill="#63b8ff" stroke="#63b8ff" points="221.79,-17.88 211.19,-17.98 219.54,-24.51 221.79,-17.88"/>
</a>
</g>
</g>
<!-- Node15&#45;&gt;Node3 -->
<g id="edge25_Node000015_Node000003" class="edge">
<title>Node15&#45;&gt;Node3</title>
<g id="a_edge25_Node000015_Node000003"><a xlink:title=" ">
<path fill="none" stroke="#63b8ff" d="M293.8,-165.3C255.66,-154.01 204.36,-138.84 172.91,-129.53"/>
<polygon fill="#63b8ff" stroke="#63b8ff" points="174.31,-126.29 163.73,-126.81 172.33,-133.01 174.31,-126.29"/>
</a>
</g>
</g>
<!-- Node15&#45;&gt;Node4 -->
<g id="edge27_Node000015_Node000004" class="edge">
<title>Node15&#45;&gt;Node4</title>
<g id="a_edge27_Node000015_Node000004"><a xlink:title=" ">
<path fill="none" stroke="#63b8ff" d="M374.27,-165.42C416.71,-143.24 484.86,-98.99 455.5,-55.25 438.6,-30.07 404.71,-19.09 379.18,-14.31"/>
<polygon fill="#63b8ff" stroke="#63b8ff" points="380.05,-10.9 369.62,-12.76 378.93,-17.81 380.05,-10.9"/>
</a>
</g>
</g>
<!-- Node15&#45;&gt;Node5 -->
<g id="edge28_Node000015_Node000005" class="edge">
<title>Node15&#45;&gt;Node5</title>
<g id="a_edge28_Node000015_Node000005"><a xlink:title=" ">
<path fill="none" stroke="#63b8ff" d="M398.45,-165.3C435.54,-155.37 483.89,-142.43 518.66,-133.13"/>
<polygon fill="#63b8ff" stroke="#63b8ff" points="519.22,-136.6 527.97,-130.63 517.41,-129.84 519.22,-136.6"/>
</a>
</g>
</g>
<!-- Node15&#45;&gt;Node11 -->
<g id="edge26_Node000015_Node000011" class="edge">
<title>Node15&#45;&gt;Node11</title>
<g id="a_edge26_Node000015_Node000011"><a xlink:title=" ">
<path fill="none" stroke="#63b8ff" d="M301.45,-165.32C282.79,-157.15 261.68,-145.41 246.5,-129.75 218.67,-101.02 202.3,-56.13 194.69,-30.44"/>
<polygon fill="#63b8ff" stroke="#63b8ff" points="198.12,-29.68 192.06,-20.99 191.37,-31.56 198.12,-29.68"/>
</a>
</g>
</g>
<!-- Node15&#45;&gt;Node12 -->
<g id="edge30_Node000015_Node000012" class="edge">
<title>Node15&#45;&gt;Node12</title>
<g id="a_edge30_Node000015_Node000012"><a xlink:title=" ">
<path fill="none" stroke="#63b8ff" d="M331.39,-165.45C324.72,-157.43 316.38,-147.42 309.32,-138.94"/>
<polygon fill="#63b8ff" stroke="#63b8ff" points="312.11,-136.81 303.02,-131.36 306.73,-141.29 312.11,-136.81"/>
</a>
</g>
</g>
<!-- Node15&#45;&gt;Node14 -->
<g id="edge29_Node000015_Node000014" class="edge">
<title>Node15&#45;&gt;Node14</title>
<g id="a_edge29_Node000015_Node000014"><a xlink:title=" ">
<path fill="none" stroke="#63b8ff" d="M343.88,-165.55C344.41,-145.5 345.36,-109.15 345.96,-86.32"/>
<polygon fill="#63b8ff" stroke="#63b8ff" points="349.46,-86.55 346.22,-76.46 342.46,-86.37 349.46,-86.55"/>
</a>
</g>
</g>
</g>
</svg>
