<?xml version="1.0" encoding="UTF-8" standalone="no"?>
<!DOCTYPE svg PUBLIC "-//W3C//DTD SVG 1.1//EN"
 "http://www.w3.org/Graphics/SVG/1.1/DTD/svg11.dtd">
<!-- Generated by graphviz version 12.2.1 (0)
 -->
<!-- Title: algorithms/GraphColoring.h Pages: 1 -->
<svg width="685pt" height="193pt"
 viewBox="0.00 0.00 684.88 193.00" xmlns="http://www.w3.org/2000/svg" xmlns:xlink="http://www.w3.org/1999/xlink">
<g id="graph0" class="graph" transform="scale(1 1) rotate(0) translate(4 189)">
<title>algorithms/GraphColoring.h</title>
<!-- Node1 -->
<g id="Node000001" class="node">
<title>Node1</title>
<g id="a_Node000001"><a xlink:title="Graph&#45;coloring&#45;based register allocation algorithms.">
<polygon fill="#999999" stroke="#666666" points="309.62,-185 175.12,-185 175.12,-165.75 309.62,-165.75 309.62,-185"/>
<text text-anchor="middle" x="242.38" y="-171.5" font-family="Helvetica,sans-Serif" font-size="10.00">algorithms/GraphColoring.h</text>
</a>
</g>
</g>
<!-- Node2 -->
<g id="Node000002" class="node">
<title>Node2</title>
<g id="a_Node000002"><a xlink:title=" ">
<polygon fill="#e0e0e0" stroke="#999999" points="34.75,-129.75 0,-129.75 0,-110.5 34.75,-110.5 34.75,-129.75"/>
<text text-anchor="middle" x="17.38" y="-116.25" font-family="Helvetica,sans-Serif" font-size="10.00">map</text>
</a>
</g>
</g>
<!-- Node1&#45;&gt;Node2 -->
<g id="edge1_Node000001_Node000002" class="edge">
<title>Node1&#45;&gt;Node2</title>
<g id="a_edge1_Node000001_Node000002"><a xlink:title=" ">
<path fill="none" stroke="#63b8ff" d="M200.24,-165.26C160.85,-156.6 100.46,-142.98 48.38,-129.75 47.56,-129.54 46.74,-129.33 45.91,-129.12"/>
<polygon fill="#63b8ff" stroke="#63b8ff" points="47.07,-125.8 36.5,-126.58 45.25,-132.56 47.07,-125.8"/>
</a>
</g>
</g>
<!-- Node3 -->
<g id="Node000003" class="node">
<title>Node3</title>
<g id="a_Node000003"><a xlink:title=" ">
<polygon fill="#e0e0e0" stroke="#999999" points="404.88,-19.25 361.88,-19.25 361.88,0 404.88,0 404.88,-19.25"/>
<text text-anchor="middle" x="383.38" y="-5.75" font-family="Helvetica,sans-Serif" font-size="10.00">vector</text>
</a>
</g>
</g>
<!-- Node1&#45;&gt;Node3 -->
<g id="edge2_Node000001_Node000003" class="edge">
<title>Node1&#45;&gt;Node3</title>
<g id="a_edge2_Node000001_Node000003"><a xlink:title=" ">
<path fill="none" stroke="#63b8ff" d="M209.5,-165.38C150.71,-147.74 37.64,-105.92 81.38,-55.25 115.83,-15.33 279.19,-10.51 350.24,-10.34"/>
<polygon fill="#63b8ff" stroke="#63b8ff" points="350.08,-13.84 360.09,-10.35 350.09,-6.84 350.08,-13.84"/>
</a>
</g>
</g>
<!-- Node4 -->
<g id="Node000004" class="node">
<title>Node4</title>
<g id="a_Node000004"><a xlink:href="_graph_8h.html" target="_top" xlink:title=" ">
<polygon fill="white" stroke="#666666" points="302.88,-129.75 181.88,-129.75 181.88,-110.5 302.88,-110.5 302.88,-129.75"/>
<text text-anchor="middle" x="242.38" y="-116.25" font-family="Helvetica,sans-Serif" font-size="10.00">data_structures/Graph.h</text>
</a>
</g>
</g>
<!-- Node1&#45;&gt;Node4 -->
<g id="edge3_Node000001_Node000004" class="edge">
<title>Node1&#45;&gt;Node4</title>
<g id="a_edge3_Node000001_Node000004"><a xlink:title=" ">
<path fill="none" stroke="#63b8ff" d="M242.38,-165.58C242.38,-159.07 242.38,-149.92 242.38,-141.62"/>
<polygon fill="#63b8ff" stroke="#63b8ff" points="245.88,-141.62 242.38,-131.62 238.88,-141.62 245.88,-141.62"/>
</a>
</g>
</g>
<!-- Node9 -->
<g id="Node000009" class="node">
<title>Node9</title>
<g id="a_Node000009"><a xlink:href="_parameters_8h.html" target="_top" xlink:title="Configuration parameters parsed from the registers/config input file.">
<polygon fill="white" stroke="#666666" points="676.88,-129.75 567.88,-129.75 567.88,-110.5 676.88,-110.5 676.88,-129.75"/>
<text text-anchor="middle" x="622.38" y="-116.25" font-family="Helvetica,sans-Serif" font-size="10.00">models/Parameters.h</text>
</a>
</g>
</g>
<!-- Node1&#45;&gt;Node9 -->
<g id="edge9_Node000001_Node000009" class="edge">
<title>Node1&#45;&gt;Node9</title>
<g id="a_edge9_Node000001_Node000009"><a xlink:title=" ">
<path fill="none" stroke="#63b8ff" d="M307.27,-165.28C376.74,-155.55 486.4,-140.18 556.32,-130.38"/>
<polygon fill="#63b8ff" stroke="#63b8ff" points="556.7,-133.86 566.11,-129.01 555.72,-126.93 556.7,-133.86"/>
</a>
</g>
</g>
<!-- Node11 -->
<g id="Node000011" class="node">
<title>Node11</title>
<g id="a_Node000011"><a xlink:href="_web_8h.html" target="_top" xlink:title="Data model for a live web (merged live ranges of a variable).">
<polygon fill="white" stroke="#666666" points="522.5,-129.75 444.25,-129.75 444.25,-110.5 522.5,-110.5 522.5,-129.75"/>
<text text-anchor="middle" x="483.38" y="-116.25" font-family="Helvetica,sans-Serif" font-size="10.00">models/Web.h</text>
</a>
</g>
</g>
<!-- Node1&#45;&gt;Node11 -->
<g id="edge11_Node000001_Node000011" class="edge">
<title>Node1&#45;&gt;Node11</title>
<g id="a_edge11_Node000001_Node000011"><a xlink:title=" ">
<path fill="none" stroke="#63b8ff" d="M283.53,-165.28C324.84,-156.15 388.54,-142.08 432.88,-132.28"/>
<polygon fill="#63b8ff" stroke="#63b8ff" points="433.5,-135.73 442.51,-130.15 431.99,-128.89 433.5,-135.73"/>
</a>
</g>
</g>
<!-- Node4&#45;&gt;Node3 -->
<g id="edge5_Node000004_Node000003" class="edge">
<title>Node4&#45;&gt;Node3</title>
<g id="a_edge5_Node000004_Node000003"><a xlink:title=" ">
<path fill="none" stroke="#63b8ff" d="M276.9,-110.13C298.47,-103.17 325.77,-91.75 345.38,-74.5 359.15,-62.38 369.35,-44.02 375.69,-30.09"/>
<polygon fill="#63b8ff" stroke="#63b8ff" points="378.84,-31.63 379.51,-21.06 372.39,-28.9 378.84,-31.63"/>
</a>
</g>
</g>
<!-- Node5 -->
<g id="Node000005" class="node">
<title>Node5</title>
<g id="a_Node000005"><a xlink:title=" ">
<polygon fill="#e0e0e0" stroke="#999999" points="144.12,-74.5 90.62,-74.5 90.62,-55.25 144.12,-55.25 144.12,-74.5"/>
<text text-anchor="middle" x="117.38" y="-61" font-family="Helvetica,sans-Serif" font-size="10.00">iostream</text>
</a>
</g>
</g>
<!-- Node4&#45;&gt;Node5 -->
<g id="edge4_Node000004_Node000005" class="edge">
<title>Node4&#45;&gt;Node5</title>
<g id="a_edge4_Node000004_Node000005"><a xlink:title=" ">
<path fill="none" stroke="#63b8ff" d="M221.17,-110.09C201.42,-101.68 171.7,-89.02 149.12,-79.4"/>
<polygon fill="#63b8ff" stroke="#63b8ff" points="150.65,-76.24 140.08,-75.55 147.9,-82.68 150.65,-76.24"/>
</a>
</g>
</g>
<!-- Node6 -->
<g id="Node000006" class="node">
<title>Node6</title>
<g id="a_Node000006"><a xlink:title=" ">
<polygon fill="#e0e0e0" stroke="#999999" points="204.5,-74.5 162.25,-74.5 162.25,-55.25 204.5,-55.25 204.5,-74.5"/>
<text text-anchor="middle" x="183.38" y="-61" font-family="Helvetica,sans-Serif" font-size="10.00">queue</text>
</a>
</g>
</g>
<!-- Node4&#45;&gt;Node6 -->
<g id="edge6_Node000004_Node000006" class="edge">
<title>Node4&#45;&gt;Node6</title>
<g id="a_edge6_Node000004_Node000006"><a xlink:title=" ">
<path fill="none" stroke="#63b8ff" d="M232.37,-110.09C224.01,-102.55 211.88,-91.6 201.77,-82.48"/>
<polygon fill="#63b8ff" stroke="#63b8ff" points="204.13,-79.89 194.36,-75.79 199.44,-85.09 204.13,-79.89"/>
</a>
</g>
</g>
<!-- Node7 -->
<g id="Node000007" class="node">
<title>Node7</title>
<g id="a_Node000007"><a xlink:title=" ">
<polygon fill="#e0e0e0" stroke="#999999" points="262,-74.5 222.75,-74.5 222.75,-55.25 262,-55.25 262,-74.5"/>
<text text-anchor="middle" x="242.38" y="-61" font-family="Helvetica,sans-Serif" font-size="10.00">limits</text>
</a>
</g>
</g>
<!-- Node4&#45;&gt;Node7 -->
<g id="edge7_Node000004_Node000007" class="edge">
<title>Node4&#45;&gt;Node7</title>
<g id="a_edge7_Node000004_Node000007"><a xlink:title=" ">
<path fill="none" stroke="#63b8ff" d="M242.38,-110.33C242.38,-103.82 242.38,-94.67 242.38,-86.37"/>
<polygon fill="#63b8ff" stroke="#63b8ff" points="245.88,-86.37 242.38,-76.37 238.88,-86.37 245.88,-86.37"/>
</a>
</g>
</g>
<!-- Node8 -->
<g id="Node000008" class="node">
<title>Node8</title>
<g id="a_Node000008"><a xlink:title=" ">
<polygon fill="#e0e0e0" stroke="#999999" points="336.25,-74.5 280.5,-74.5 280.5,-55.25 336.25,-55.25 336.25,-74.5"/>
<text text-anchor="middle" x="308.38" y="-61" font-family="Helvetica,sans-Serif" font-size="10.00">algorithm</text>
</a>
</g>
</g>
<!-- Node4&#45;&gt;Node8 -->
<g id="edge8_Node000004_Node000008" class="edge">
<title>Node4&#45;&gt;Node8</title>
<g id="a_edge8_Node000004_Node000008"><a xlink:title=" ">
<path fill="none" stroke="#63b8ff" d="M253.57,-110.09C263.11,-102.4 277.05,-91.15 288.48,-81.93"/>
<polygon fill="#63b8ff" stroke="#63b8ff" points="290.58,-84.73 296.17,-75.73 286.19,-79.28 290.58,-84.73"/>
</a>
</g>
</g>
<!-- Node10 -->
<g id="Node000010" class="node">
<title>Node10</title>
<g id="a_Node000010"><a xlink:title=" ">
<polygon fill="#e0e0e0" stroke="#999999" points="584.38,-19.25 544.38,-19.25 544.38,0 584.38,0 584.38,-19.25"/>
<text text-anchor="middle" x="564.38" y="-5.75" font-family="Helvetica,sans-Serif" font-size="10.00">string</text>
</a>
</g>
</g>
<!-- Node9&#45;&gt;Node10 -->
<g id="edge10_Node000009_Node000010" class="edge">
<title>Node9&#45;&gt;Node10</title>
<g id="a_edge10_Node000009_Node000010"><a xlink:title=" ">
<path fill="none" stroke="#63b8ff" d="M626.8,-110.28C632.58,-97.38 640.89,-73.02 631.38,-55.25 623.59,-40.72 608.76,-30.11 595.03,-22.88"/>
<polygon fill="#63b8ff" stroke="#63b8ff" points="596.77,-19.84 586.24,-18.67 593.74,-26.15 596.77,-19.84"/>
</a>
</g>
</g>
<!-- Node11&#45;&gt;Node3 -->
<g id="edge14_Node000011_Node000003" class="edge">
<title>Node11&#45;&gt;Node3</title>
<g id="a_edge14_Node000011_Node000003"><a xlink:title=" ">
<path fill="none" stroke="#63b8ff" d="M467.2,-110.05C453.79,-101.97 434.82,-89.17 421.38,-74.5 409.12,-61.12 398.86,-43.17 392.1,-29.7"/>
<polygon fill="#63b8ff" stroke="#63b8ff" points="395.42,-28.52 387.94,-21.01 389.1,-31.54 395.42,-28.52"/>
</a>
</g>
</g>
<!-- Node11&#45;&gt;Node10 -->
<g id="edge12_Node000011_Node000010" class="edge">
<title>Node11&#45;&gt;Node10</title>
<g id="a_edge12_Node000011_Node000010"><a xlink:title=" ">
<path fill="none" stroke="#63b8ff" d="M501.95,-110.07C515.82,-102.41 534.23,-90.17 545.38,-74.5 554.52,-61.64 559.31,-44.35 561.8,-31"/>
<polygon fill="#63b8ff" stroke="#63b8ff" points="565.25,-31.6 563.31,-21.18 558.33,-30.53 565.25,-31.6"/>
</a>
</g>
</g>
<!-- Node12 -->
<g id="Node000012" class="node">
<title>Node12</title>
<g id="a_Node000012"><a xlink:title=" ">
<polygon fill="#e0e0e0" stroke="#999999" points="622.12,-74.5 592.62,-74.5 592.62,-55.25 622.12,-55.25 622.12,-74.5"/>
<text text-anchor="middle" x="607.38" y="-61" font-family="Helvetica,sans-Serif" font-size="10.00">set</text>
</a>
</g>
</g>
<!-- Node11&#45;&gt;Node12 -->
<g id="edge13_Node000011_Node000012" class="edge">
<title>Node11&#45;&gt;Node12</title>
<g id="a_edge13_Node000011_Node000012"><a xlink:title=" ">
<path fill="none" stroke="#63b8ff" d="M504.41,-110.09C525.91,-100.86 559.29,-86.52 582.18,-76.69"/>
<polygon fill="#63b8ff" stroke="#63b8ff" points="583.28,-80.03 591.09,-72.87 580.52,-73.6 583.28,-80.03"/>
</a>
</g>
</g>
<!-- Node13 -->
<g id="Node000013" class="node">
<title>Node13</title>
<g id="a_Node000013"><a xlink:href="_live_range_8h.html" target="_top" xlink:title="Data model for a single live range of a variable.">
<polygon fill="white" stroke="#666666" points="536,-74.5 430.75,-74.5 430.75,-55.25 536,-55.25 536,-74.5"/>
<text text-anchor="middle" x="483.38" y="-61" font-family="Helvetica,sans-Serif" font-size="10.00">models/LiveRange.h</text>
</a>
</g>
</g>
<!-- Node11&#45;&gt;Node13 -->
<g id="edge15_Node000011_Node000013" class="edge">
<title>Node11&#45;&gt;Node13</title>
<g id="a_edge15_Node000011_Node000013"><a xlink:title=" ">
<path fill="none" stroke="#63b8ff" d="M483.38,-110.33C483.38,-103.82 483.38,-94.67 483.38,-86.37"/>
<polygon fill="#63b8ff" stroke="#63b8ff" points="486.88,-86.37 483.38,-76.37 479.88,-86.37 486.88,-86.37"/>
</a>
</g>
</g>
<!-- Node13&#45;&gt;Node3 -->
<g id="edge17_Node000013_Node000003" class="edge">
<title>Node13&#45;&gt;Node3</title>
<g id="a_edge17_Node000013_Node000003"><a xlink:title=" ">
<path fill="none" stroke="#63b8ff" d="M466.41,-54.84C451.11,-46.69 428.34,-34.57 410.51,-25.08"/>
<polygon fill="#63b8ff" stroke="#63b8ff" points="412.23,-22.02 401.76,-20.41 408.94,-28.2 412.23,-22.02"/>
</a>
</g>
</g>
<!-- Node13&#45;&gt;Node10 -->
<g id="edge16_Node000013_Node000010" class="edge">
<title>Node13&#45;&gt;Node10</title>
<g id="a_edge16_Node000013_Node000010"><a xlink:title=" ">
<path fill="none" stroke="#63b8ff" d="M497.12,-54.84C509.1,-46.96 526.75,-35.36 540.96,-26.02"/>
<polygon fill="#63b8ff" stroke="#63b8ff" points="542.87,-28.95 549.3,-20.53 539.02,-23.1 542.87,-28.95"/>
</a>
</g>
</g>
</g>
</svg>
