<?xml version="1.0" encoding="UTF-8" standalone="no"?>
<!DOCTYPE svg PUBLIC "-//W3C//DTD SVG 1.1//EN"
 "http://www.w3.org/Graphics/SVG/1.1/DTD/svg11.dtd">
<!-- Generated by graphviz version 12.2.1 (0)
 -->
<!-- Title: io/OutputWriter.h Pages: 1 -->
<svg width="383pt" height="94pt"
 viewBox="0.00 0.00 382.88 93.75" xmlns="http://www.w3.org/2000/svg" xmlns:xlink="http://www.w3.org/1999/xlink">
<g id="graph0" class="graph" transform="scale(1 1) rotate(0) translate(4 89.75)">
<title>io/OutputWriter.h</title>
<!-- Node1 -->
<g id="Node000001" class="node">
<title>Node1</title>
<g id="a_Node000001"><a xlink:title="Writes the register allocation result to a text file.">
<polygon fill="#999999" stroke="#666666" points="232,-85.75 143.25,-85.75 143.25,-66.5 232,-66.5 232,-85.75"/>
<text text-anchor="middle" x="187.62" y="-72.25" font-family="Helvetica,sans-Serif" font-size="10.00">io/OutputWriter.h</text>
</a>
</g>
</g>
<!-- Node2 -->
<g id="Node000002" class="node">
<title>Node2</title>
<g id="a_Node000002"><a xlink:href="_output_writer_8cpp.html" target="_top" xlink:title="Implementation of OutputWriter.">
<polygon fill="white" stroke="#666666" points="99.25,-24.88 0,-24.88 0,-5.63 99.25,-5.63 99.25,-24.88"/>
<text text-anchor="middle" x="49.62" y="-11.38" font-family="Helvetica,sans-Serif" font-size="10.00">io/OutputWriter.cpp</text>
</a>
</g>
</g>
<!-- Node1&#45;&gt;Node2 -->
<g id="edge1_Node000001_Node000002" class="edge">
<title>Node1&#45;&gt;Node2</title>
<g id="a_edge1_Node000001_Node000002"><a xlink:title=" ">
<path fill="none" stroke="#63b8ff" d="M155.85,-61.57C129.7,-50.41 93.36,-34.91 70.68,-25.23"/>
<polygon fill="#63b8ff" stroke="#63b8ff" points="154.4,-64.76 164.97,-65.46 157.15,-58.32 154.4,-64.76"/>
</a>
</g>
</g>
<!-- Node3 -->
<g id="Node000003" class="node">
<title>Node3</title>
<g id="a_Node000003"><a xlink:href="_allocation_logic_8cpp.html" target="_top" xlink:title="Implementation of the AllocationLogic orchestration layer.">
<polygon fill="white" stroke="#666666" points="257.88,-24.88 117.38,-24.88 117.38,-5.63 257.88,-5.63 257.88,-24.88"/>
<text text-anchor="middle" x="187.62" y="-11.38" font-family="Helvetica,sans-Serif" font-size="10.00">services/AllocationLogic.cpp</text>
</a>
</g>
</g>
<!-- Node1&#45;&gt;Node3 -->
<g id="edge2_Node000001_Node000003" class="edge">
<title>Node1&#45;&gt;Node3</title>
<g id="a_edge2_Node000001_Node000003"><a xlink:title=" ">
<path fill="none" stroke="#63b8ff" d="M187.62,-54.7C187.62,-44.67 187.62,-33.08 187.62,-25.28"/>
<polygon fill="#63b8ff" stroke="#63b8ff" points="184.13,-54.67 187.63,-64.67 191.13,-54.67 184.13,-54.67"/>
</a>
</g>
</g>
<!-- Node4 -->
<g id="Node000004" class="node">
<title>Node4</title>
<g id="a_Node000004"><a xlink:href="register__alloc__tests_8cpp.html" target="_top" xlink:title="Unit tests for the compiler register allocation project.">
<polygon fill="white" stroke="#666666" points="374.88,-30.5 276.38,-30.5 276.38,0 374.88,0 374.88,-30.5"/>
<text text-anchor="start" x="284.38" y="-17" font-family="Helvetica,sans-Serif" font-size="10.00">tests/register_alloc</text>
<text text-anchor="middle" x="325.62" y="-5.75" font-family="Helvetica,sans-Serif" font-size="10.00">_tests.cpp</text>
</a>
</g>
</g>
<!-- Node1&#45;&gt;Node4 -->
<g id="edge3_Node000001_Node000004" class="edge">
<title>Node1&#45;&gt;Node4</title>
<g id="a_edge3_Node000001_Node000004"><a xlink:title=" ">
<path fill="none" stroke="#63b8ff" d="M219.41,-61.56C240.87,-52.41 269.18,-40.33 291.18,-30.94"/>
<polygon fill="#63b8ff" stroke="#63b8ff" points="218.1,-58.32 210.28,-65.46 220.85,-64.76 218.1,-58.32"/>
</a>
</g>
</g>
</g>
</svg>
