<?xml version="1.0" encoding="UTF-8" standalone="no"?>
<!DOCTYPE svg PUBLIC "-//W3C//DTD SVG 1.1//EN"
 "http://www.w3.org/Graphics/SVG/1.1/DTD/svg11.dtd">
<!-- Generated by graphviz version 12.2.1 (0)
 -->
<!-- Title: web_fusion_example Pages: 1 -->
<svg width="490pt" height="191pt"
 viewBox="0.00 0.00 490.24 190.50" xmlns="http://www.w3.org/2000/svg" xmlns:xlink="http://www.w3.org/1999/xlink">
<g id="graph0" class="graph" transform="scale(1 1) rotate(0) translate(4 186.5)">
<title>web_fusion_example</title>
<polygon fill="white" stroke="none" points="-4,4 -4,-186.5 486.24,-186.5 486.24,4 -4,4"/>
<text text-anchor="middle" x="241.12" y="-165.2" font-family="Times,serif" font-size="14.00">Overlapping ranges of the same variable are transitively fused into one web</text>
<!-- r0 -->
<g id="node1" class="node">
<title>r0</title>
<path fill="none" stroke="#2f6b56" d="M79,-36C79,-36 12,-36 12,-36 6,-36 0,-30 0,-24 0,-24 0,-12 0,-12 0,-6 6,0 12,0 12,0 79,0 79,0 85,0 91,-6 91,-12 91,-12 91,-24 91,-24 91,-30 85,-36 79,-36"/>
<text text-anchor="middle" x="45.5" y="-12.57" font-family="Helvetica,sans-Serif" font-size="14.00">x: 1+,2,3,4,7</text>
</g>
<!-- r1 -->
<g id="node2" class="node">
<title>r1</title>
<path fill="none" stroke="#2f6b56" d="M199.75,-78C199.75,-78 169.75,-78 169.75,-78 163.75,-78 157.75,-72 157.75,-66 157.75,-66 157.75,-54 157.75,-54 157.75,-48 163.75,-42 169.75,-42 169.75,-42 199.75,-42 199.75,-42 205.75,-42 211.75,-48 211.75,-54 211.75,-54 211.75,-66 211.75,-66 211.75,-72 205.75,-78 199.75,-78"/>
<text text-anchor="middle" x="184.75" y="-54.58" font-family="Helvetica,sans-Serif" font-size="14.00">x: 7,8</text>
</g>
<!-- r0&#45;&#45;r1 -->
<g id="edge1" class="edge">
<title>r0&#45;&#45;r1</title>
<path fill="none" stroke="#2f6b56" stroke-width="1.4" d="M91.44,-31.75C113.33,-38.45 138.89,-46.27 157.55,-51.98"/>
<text text-anchor="middle" x="124.38" y="-49.61" font-family="Times,serif" font-size="14.00">line 7</text>
</g>
<!-- web0 -->
<g id="node5" class="node">
<title>web0</title>
<ellipse fill="#d9efe4" stroke="#2f6b56" cx="448.12" cy="-57" rx="34.12" ry="27.93"/>
<text text-anchor="middle" x="448.12" y="-59.45" font-family="Helvetica,sans-Serif" font-size="14.00">web0</text>
<text text-anchor="middle" x="448.12" y="-43.7" font-family="Helvetica,sans-Serif" font-size="14.00">x</text>
</g>
<!-- r0&#45;&#45;web0 -->
<g id="edge4" class="edge">
<title>r0&#45;&#45;web0</title>
<path fill="none" stroke="#2f6b56" stroke-width="1.4" stroke-dasharray="5,2" d="M91.4,-21.94C124.64,-24.89 171.03,-29.08 211.75,-33 283.91,-39.95 368.45,-48.73 414,-53.51"/>
</g>
<!-- r2 -->
<g id="node3" class="node">
<title>r2</title>
<path fill="none" stroke="#2f6b56" d="M342.75,-158C342.75,-158 312.75,-158 312.75,-158 306.75,-158 300.75,-152 300.75,-146 300.75,-146 300.75,-134 300.75,-134 300.75,-128 306.75,-122 312.75,-122 312.75,-122 342.75,-122 342.75,-122 348.75,-122 354.75,-128 354.75,-134 354.75,-134 354.75,-146 354.75,-146 354.75,-152 348.75,-158 342.75,-158"/>
<text text-anchor="middle" x="327.75" y="-134.57" font-family="Helvetica,sans-Serif" font-size="14.00">x: 8,9&#45;</text>
</g>
<!-- r1&#45;&#45;r2 -->
<g id="edge2" class="edge">
<title>r1&#45;&#45;r2</title>
<path fill="none" stroke="#2f6b56" stroke-width="1.4" d="M207.47,-78.26C214.37,-83.66 222.18,-89.36 229.75,-94 252.63,-108.04 280.46,-120.84 300.43,-129.35"/>
<text text-anchor="middle" x="245.13" y="-112.92" font-family="Times,serif" font-size="14.00">line 8</text>
</g>
<!-- r3 -->
<g id="node4" class="node">
<title>r3</title>
<path fill="none" stroke="#2f6b56" d="M365,-104C365,-104 290.5,-104 290.5,-104 284.5,-104 278.5,-98 278.5,-92 278.5,-92 278.5,-80 278.5,-80 278.5,-74 284.5,-68 290.5,-68 290.5,-68 365,-68 365,-68 371,-68 377,-74 377,-80 377,-80 377,-92 377,-92 377,-98 371,-104 365,-104"/>
<text text-anchor="middle" x="327.75" y="-80.58" font-family="Helvetica,sans-Serif" font-size="14.00">x: 8,11,12,13&#45;</text>
</g>
<!-- r1&#45;&#45;r3 -->
<g id="edge3" class="edge">
<title>r1&#45;&#45;r3</title>
<path fill="none" stroke="#2f6b56" stroke-width="1.4" d="M211.94,-64.83C230.5,-68.25 255.94,-72.94 278.16,-77.04"/>
<text text-anchor="middle" x="245.13" y="-76.98" font-family="Times,serif" font-size="14.00">line 8</text>
</g>
<!-- r1&#45;&#45;web0 -->
<g id="edge5" class="edge">
<title>r1&#45;&#45;web0</title>
<path fill="none" stroke="#2f6b56" stroke-width="1.4" stroke-dasharray="5,2" d="M212.25,-59.7C260.14,-59.15 360.99,-57.99 413.6,-57.38"/>
</g>
<!-- r2&#45;&#45;web0 -->
<g id="edge6" class="edge">
<title>r2&#45;&#45;web0</title>
<path fill="none" stroke="#2f6b56" stroke-width="1.4" stroke-dasharray="5,2" d="M355.01,-126.33C362.28,-122.27 370.07,-117.66 377,-113 393.29,-102.05 410.53,-88.31 423.84,-77.18"/>
</g>
<!-- r3&#45;&#45;web0 -->
<g id="edge7" class="edge">
<title>r3&#45;&#45;web0</title>
<path fill="none" stroke="#2f6b56" stroke-width="1.4" stroke-dasharray="5,2" d="M377.24,-74.12C390.01,-70.99 403.46,-67.7 415.12,-64.84"/>
</g>
</g>
</svg>
