<?xml version="1.0" encoding="UTF-8" standalone="no"?>
<!DOCTYPE svg PUBLIC "-//W3C//DTD SVG 1.1//EN"
 "http://www.w3.org/Graphics/SVG/1.1/DTD/svg11.dtd">
<!-- Generated by graphviz version 12.2.1 (0)
 -->
<!-- Title: io/OutputWriter.cpp Pages: 1 -->
<svg width="561pt" height="252pt"
 viewBox="0.00 0.00 560.62 252.00" xmlns="http://www.w3.org/2000/svg" xmlns:xlink="http://www.w3.org/1999/xlink">
<g id="graph0" class="graph" transform="scale(1 1) rotate(0) translate(4 248)">
<title>io/OutputWriter.cpp</title>
<!-- Node1 -->
<g id="Node000001" class="node">
<title>Node1</title>
<g id="a_Node000001"><a xlink:title="Implementation of OutputWriter.">
<polygon fill="#999999" stroke="#666666" points="396.62,-244 297.38,-244 297.38,-224 396.62,-224 396.62,-244"/>
<text text-anchor="middle" x="347" y="-230.5" font-family="Helvetica,sans-Serif" font-size="10.00">io/OutputWriter.cpp</text>
</a>
</g>
</g>
<!-- Node2 -->
<g id="Node000002" class="node">
<title>Node2</title>
<g id="a_Node000002"><a xlink:href="OutputWriter_8h.html" target="_top" xlink:title="Writes the register allocation result to a text file.">
<polygon fill="white" stroke="#666666" points="197.38,-188 108.62,-188 108.62,-168 197.38,-168 197.38,-188"/>
<text text-anchor="middle" x="153" y="-174.5" font-family="Helvetica,sans-Serif" font-size="10.00">io/OutputWriter.h</text>
</a>
</g>
</g>
<!-- Node1&#45;&gt;Node2 -->
<g id="edge1_Node000001_Node000002" class="edge">
<title>Node1&#45;&gt;Node2</title>
<g id="a_edge1_Node000001_Node000002"><a xlink:title=" ">
<path fill="none" stroke="#63b8ff" d="M313.21,-223.59C281.27,-214.71 233.15,-201.31 197.98,-191.52"/>
<polygon fill="#63b8ff" stroke="#63b8ff" points="199.09,-188.2 188.51,-188.89 197.21,-194.94 199.09,-188.2"/>
</a>
</g>
</g>
<!-- Node7 -->
<g id="Node000007" class="node">
<title>Node7</title>
<g id="a_Node000007"><a xlink:title=" ">
<polygon fill="#e0e0e0" stroke="#999999" points="277.75,-76 248.25,-76 248.25,-56 277.75,-56 277.75,-76"/>
<text text-anchor="middle" x="263" y="-62.5" font-family="Helvetica,sans-Serif" font-size="10.00">set</text>
</a>
</g>
</g>
<!-- Node1&#45;&gt;Node7 -->
<g id="edge15_Node000001_Node000007" class="edge">
<title>Node1&#45;&gt;Node7</title>
<g id="a_edge15_Node000001_Node000007"><a xlink:title=" ">
<path fill="none" stroke="#63b8ff" d="M323.96,-223.58C308.93,-216.18 290.26,-204.39 280,-188 260.64,-157.09 259.62,-113.11 261.03,-87.57"/>
<polygon fill="#63b8ff" stroke="#63b8ff" points="264.5,-88.1 261.77,-77.86 257.52,-87.57 264.5,-88.1"/>
</a>
</g>
</g>
<!-- Node9 -->
<g id="Node000009" class="node">
<title>Node9</title>
<g id="a_Node000009"><a xlink:title=" ">
<polygon fill="#e0e0e0" stroke="#999999" points="337.5,-188 288.5,-188 288.5,-168 337.5,-168 337.5,-188"/>
<text text-anchor="middle" x="313" y="-174.5" font-family="Helvetica,sans-Serif" font-size="10.00">fstream</text>
</a>
</g>
</g>
<!-- Node1&#45;&gt;Node9 -->
<g id="edge12_Node000001_Node000009" class="edge">
<title>Node1&#45;&gt;Node9</title>
<g id="a_edge12_Node000001_Node000009"><a xlink:title=" ">
<path fill="none" stroke="#63b8ff" d="M341.08,-223.59C336.64,-216.55 330.42,-206.67 324.96,-198"/>
<polygon fill="#63b8ff" stroke="#63b8ff" points="327.95,-196.18 319.66,-189.58 322.03,-199.91 327.95,-196.18"/>
</a>
</g>
</g>
<!-- Node10 -->
<g id="Node000010" class="node">
<title>Node10</title>
<g id="a_Node000010"><a xlink:title=" ">
<polygon fill="#e0e0e0" stroke="#999999" points="408.75,-188 355.25,-188 355.25,-168 408.75,-168 408.75,-188"/>
<text text-anchor="middle" x="382" y="-174.5" font-family="Helvetica,sans-Serif" font-size="10.00">iostream</text>
</a>
</g>
</g>
<!-- Node1&#45;&gt;Node10 -->
<g id="edge13_Node000001_Node000010" class="edge">
<title>Node1&#45;&gt;Node10</title>
<g id="a_edge13_Node000001_Node000010"><a xlink:title=" ">
<path fill="none" stroke="#63b8ff" d="M353.1,-223.59C357.71,-216.47 364.21,-206.45 369.87,-197.72"/>
<polygon fill="#63b8ff" stroke="#63b8ff" points="372.65,-199.86 375.15,-189.57 366.77,-196.06 372.65,-199.86"/>
</a>
</g>
</g>
<!-- Node11 -->
<g id="Node000011" class="node">
<title>Node11</title>
<g id="a_Node000011"><a xlink:title=" ">
<polygon fill="#e0e0e0" stroke="#999999" points="482.88,-188 427.12,-188 427.12,-168 482.88,-168 482.88,-188"/>
<text text-anchor="middle" x="455" y="-174.5" font-family="Helvetica,sans-Serif" font-size="10.00">algorithm</text>
</a>
</g>
</g>
<!-- Node1&#45;&gt;Node11 -->
<g id="edge14_Node000001_Node000011" class="edge">
<title>Node1&#45;&gt;Node11</title>
<g id="a_edge14_Node000001_Node000011"><a xlink:title=" ">
<path fill="none" stroke="#63b8ff" d="M365.81,-223.59C382.36,-215.32 406.71,-203.14 425.79,-193.6"/>
<polygon fill="#63b8ff" stroke="#63b8ff" points="427.31,-196.76 434.69,-189.16 424.18,-190.5 427.31,-196.76"/>
</a>
</g>
</g>
<!-- Node12 -->
<g id="Node000012" class="node">
<title>Node12</title>
<g id="a_Node000012"><a xlink:title=" ">
<polygon fill="#e0e0e0" stroke="#999999" points="552.62,-188 501.38,-188 501.38,-168 552.62,-168 552.62,-188"/>
<text text-anchor="middle" x="527" y="-174.5" font-family="Helvetica,sans-Serif" font-size="10.00">sstream</text>
</a>
</g>
</g>
<!-- Node1&#45;&gt;Node12 -->
<g id="edge16_Node000001_Node000012" class="edge">
<title>Node1&#45;&gt;Node12</title>
<g id="a_edge16_Node000001_Node000012"><a xlink:title=" ">
<path fill="none" stroke="#63b8ff" d="M378.35,-223.59C409.44,-214.27 457.06,-199.98 489.98,-190.11"/>
<polygon fill="#63b8ff" stroke="#63b8ff" points="490.94,-193.47 499.51,-187.25 488.93,-186.77 490.94,-193.47"/>
</a>
</g>
</g>
<!-- Node3 -->
<g id="Node000003" class="node">
<title>Node3</title>
<g id="a_Node000003"><a xlink:title=" ">
<polygon fill="#e0e0e0" stroke="#999999" points="95.38,-132 60.62,-132 60.62,-112 95.38,-112 95.38,-132"/>
<text text-anchor="middle" x="78" y="-118.5" font-family="Helvetica,sans-Serif" font-size="10.00">map</text>
</a>
</g>
</g>
<!-- Node2&#45;&gt;Node3 -->
<g id="edge2_Node000002_Node000003" class="edge">
<title>Node2&#45;&gt;Node3</title>
<g id="a_edge2_Node000002_Node000003"><a xlink:title=" ">
<path fill="none" stroke="#63b8ff" d="M139.94,-167.59C129.03,-159.74 113.25,-148.38 100.34,-139.09"/>
<polygon fill="#63b8ff" stroke="#63b8ff" points="102.55,-136.37 92.39,-133.36 98.46,-142.05 102.55,-136.37"/>
</a>
</g>
</g>
<!-- Node4 -->
<g id="Node000004" class="node">
<title>Node4</title>
<g id="a_Node000004"><a xlink:title=" ">
<polygon fill="#e0e0e0" stroke="#999999" points="40,-20 0,-20 0,0 40,0 40,-20"/>
<text text-anchor="middle" x="20" y="-6.5" font-family="Helvetica,sans-Serif" font-size="10.00">string</text>
</a>
</g>
</g>
<!-- Node2&#45;&gt;Node4 -->
<g id="edge3_Node000002_Node000004" class="edge">
<title>Node2&#45;&gt;Node4</title>
<g id="a_edge3_Node000002_Node000004"><a xlink:title=" ">
<path fill="none" stroke="#63b8ff" d="M116.79,-167.56C95.8,-160.58 70.03,-149.25 52,-132 31.89,-112.77 31.22,-102.87 24,-76 20.13,-61.59 19.18,-44.76 19.18,-31.83"/>
<polygon fill="#63b8ff" stroke="#63b8ff" points="22.68,-32.03 19.38,-21.96 15.68,-31.88 22.68,-32.03"/>
</a>
</g>
</g>
<!-- Node5 -->
<g id="Node000005" class="node">
<title>Node5</title>
<g id="a_Node000005"><a xlink:title=" ">
<polygon fill="#e0e0e0" stroke="#999999" points="203.5,-20 160.5,-20 160.5,0 203.5,0 203.5,-20"/>
<text text-anchor="middle" x="182" y="-6.5" font-family="Helvetica,sans-Serif" font-size="10.00">vector</text>
</a>
</g>
</g>
<!-- Node2&#45;&gt;Node5 -->
<g id="edge4_Node000002_Node000005" class="edge">
<title>Node2&#45;&gt;Node5</title>
<g id="a_edge4_Node000002_Node000005"><a xlink:title=" ">
<path fill="none" stroke="#63b8ff" d="M168.3,-167.69C179.69,-159.79 194.37,-147.3 201,-132 215.59,-98.31 201.86,-55.03 191.37,-30.41"/>
<polygon fill="#63b8ff" stroke="#63b8ff" points="194.7,-29.28 187.38,-21.61 188.32,-32.17 194.7,-29.28"/>
</a>
</g>
</g>
<!-- Node6 -->
<g id="Node000006" class="node">
<title>Node6</title>
<g id="a_Node000006"><a xlink:href="Web_8h.html" target="_top" xlink:title="Data model for a live web (merged live ranges of a variable).">
<polygon fill="white" stroke="#666666" points="192.12,-132 113.88,-132 113.88,-112 192.12,-112 192.12,-132"/>
<text text-anchor="middle" x="153" y="-118.5" font-family="Helvetica,sans-Serif" font-size="10.00">models/Web.h</text>
</a>
</g>
</g>
<!-- Node2&#45;&gt;Node6 -->
<g id="edge5_Node000002_Node000006" class="edge">
<title>Node2&#45;&gt;Node6</title>
<g id="a_edge5_Node000002_Node000006"><a xlink:title=" ">
<path fill="none" stroke="#63b8ff" d="M153,-167.59C153,-161.01 153,-151.96 153,-143.73"/>
<polygon fill="#63b8ff" stroke="#63b8ff" points="156.5,-143.81 153,-133.81 149.5,-143.81 156.5,-143.81"/>
</a>
</g>
</g>
<!-- Node6&#45;&gt;Node4 -->
<g id="edge6_Node000006_Node000004" class="edge">
<title>Node6&#45;&gt;Node4</title>
<g id="a_edge6_Node000006_Node000004"><a xlink:title=" ">
<path fill="none" stroke="#63b8ff" d="M120.09,-111.55C90.58,-102.47 50.26,-88.34 39,-76 27.85,-63.77 23.21,-45.34 21.3,-31.22"/>
<polygon fill="#63b8ff" stroke="#63b8ff" points="24.83,-31.31 20.38,-21.7 17.86,-31.99 24.83,-31.31"/>
</a>
</g>
</g>
<!-- Node6&#45;&gt;Node5 -->
<g id="edge8_Node000006_Node000005" class="edge">
<title>Node6&#45;&gt;Node5</title>
<g id="a_edge8_Node000006_Node000005"><a xlink:title=" ">
<path fill="none" stroke="#63b8ff" d="M155.47,-111.62C160.14,-93.92 170.34,-55.24 176.64,-31.32"/>
<polygon fill="#63b8ff" stroke="#63b8ff" points="179.98,-32.38 179.15,-21.82 173.21,-30.6 179.98,-32.38"/>
</a>
</g>
</g>
<!-- Node6&#45;&gt;Node7 -->
<g id="edge7_Node000006_Node000007" class="edge">
<title>Node6&#45;&gt;Node7</title>
<g id="a_edge7_Node000006_Node000007"><a xlink:title=" ">
<path fill="none" stroke="#63b8ff" d="M172.16,-111.59C190.34,-102.67 217.77,-89.21 237.73,-79.41"/>
<polygon fill="#63b8ff" stroke="#63b8ff" points="239.15,-82.61 246.58,-75.06 236.07,-76.32 239.15,-82.61"/>
</a>
</g>
</g>
<!-- Node8 -->
<g id="Node000008" class="node">
<title>Node8</title>
<g id="a_Node000008"><a xlink:href="LiveRange_8h.html" target="_top" xlink:title="Data model for a single live range of a variable.">
<polygon fill="white" stroke="#666666" points="153.62,-76 48.38,-76 48.38,-56 153.62,-56 153.62,-76"/>
<text text-anchor="middle" x="101" y="-62.5" font-family="Helvetica,sans-Serif" font-size="10.00">models/LiveRange.h</text>
</a>
</g>
</g>
<!-- Node6&#45;&gt;Node8 -->
<g id="edge9_Node000006_Node000008" class="edge">
<title>Node6&#45;&gt;Node8</title>
<g id="a_edge9_Node000006_Node000008"><a xlink:title=" ">
<path fill="none" stroke="#63b8ff" d="M143.94,-111.59C136.78,-104.16 126.59,-93.58 117.93,-84.58"/>
<polygon fill="#63b8ff" stroke="#63b8ff" points="120.46,-82.16 111,-77.39 115.42,-87.02 120.46,-82.16"/>
</a>
</g>
</g>
<!-- Node8&#45;&gt;Node4 -->
<g id="edge10_Node000008_Node000004" class="edge">
<title>Node8&#45;&gt;Node4</title>
<g id="a_edge10_Node000008_Node000004"><a xlink:title=" ">
<path fill="none" stroke="#63b8ff" d="M86.89,-55.59C75,-47.67 57.73,-36.16 43.72,-26.82"/>
<polygon fill="#63b8ff" stroke="#63b8ff" points="45.74,-23.95 35.48,-21.32 41.86,-29.78 45.74,-23.95"/>
</a>
</g>
</g>
<!-- Node8&#45;&gt;Node5 -->
<g id="edge11_Node000008_Node000005" class="edge">
<title>Node8&#45;&gt;Node5</title>
<g id="a_edge11_Node000008_Node000005"><a xlink:title=" ">
<path fill="none" stroke="#63b8ff" d="M115.11,-55.59C127,-47.67 144.27,-36.16 158.28,-26.82"/>
<polygon fill="#63b8ff" stroke="#63b8ff" points="160.14,-29.78 166.52,-21.32 156.26,-23.95 160.14,-29.78"/>
</a>
</g>
</g>
</g>
</svg>
