<?xml version="1.0" encoding="UTF-8" standalone="no"?>
<!DOCTYPE svg PUBLIC "-//W3C//DTD SVG 1.1//EN"
 "http://www.w3.org/Graphics/SVG/1.1/DTD/svg11.dtd">
<!-- Generated by graphviz version 12.2.1 (0)
 -->
<!-- Title: ui/RegisterAllocApp.h Pages: 1 -->
<svg width="202pt" height="84pt"
 viewBox="0.00 0.00 202.38 84.00" xmlns="http://www.w3.org/2000/svg" xmlns:xlink="http://www.w3.org/1999/xlink">
<g id="graph0" class="graph" transform="scale(1 1) rotate(0) translate(4 80)">
<title>ui/RegisterAllocApp.h</title>
<!-- Node1 -->
<g id="Node000001" class="node">
<title>Node1</title>
<g id="a_Node000001"><a xlink:title="Main application controller: CLI and batch&#45;mode entry points.">
<polygon fill="#999999" stroke="#666666" points="136.12,-76 25.62,-76 25.62,-56 136.12,-56 136.12,-76"/>
<text text-anchor="middle" x="80.88" y="-62.5" font-family="Helvetica,sans-Serif" font-size="10.00">ui/RegisterAllocApp.h</text>
</a>
</g>
</g>
<!-- Node2 -->
<g id="Node000002" class="node">
<title>Node2</title>
<g id="a_Node000002"><a xlink:href="main_8cpp.html" target="_top" xlink:title=" ">
<polygon fill="white" stroke="#666666" points="55.75,-20 0,-20 0,0 55.75,0 55.75,-20"/>
<text text-anchor="middle" x="27.88" y="-6.5" font-family="Helvetica,sans-Serif" font-size="10.00">main.cpp</text>
</a>
</g>
</g>
<!-- Node1&#45;&gt;Node2 -->
<g id="edge1_Node000001_Node000002" class="edge">
<title>Node1&#45;&gt;Node2</title>
<g id="a_edge1_Node000001_Node000002"><a xlink:title=" ">
<path fill="none" stroke="#63b8ff" d="M63.76,-47.57C54.86,-38.5 44.34,-27.78 37,-20.3"/>
<polygon fill="#63b8ff" stroke="#63b8ff" points="61.08,-49.83 70.58,-54.51 66.08,-44.93 61.08,-49.83"/>
</a>
</g>
</g>
<!-- Node3 -->
<g id="Node000003" class="node">
<title>Node3</title>
<g id="a_Node000003"><a xlink:href="RegisterAllocApp_8cpp.html" target="_top" xlink:title="Implementation of the interactive CLI and batch mode.">
<polygon fill="white" stroke="#666666" points="194.38,-20 73.38,-20 73.38,0 194.38,0 194.38,-20"/>
<text text-anchor="middle" x="133.88" y="-6.5" font-family="Helvetica,sans-Serif" font-size="10.00">ui/RegisterAllocApp.cpp</text>
</a>
</g>
</g>
<!-- Node1&#45;&gt;Node3 -->
<g id="edge2_Node000001_Node000003" class="edge">
<title>Node1&#45;&gt;Node3</title>
<g id="a_edge2_Node000001_Node000003"><a xlink:title=" ">
<path fill="none" stroke="#63b8ff" d="M97.99,-47.57C106.89,-38.5 117.41,-27.78 124.75,-20.3"/>
<polygon fill="#63b8ff" stroke="#63b8ff" points="95.67,-44.93 91.17,-54.51 100.67,-49.83 95.67,-44.93"/>
</a>
</g>
</g>
</g>
</svg>
