<?xml version="1.0" encoding="UTF-8" standalone="no"?>
<!DOCTYPE svg PUBLIC "-//W3C//DTD SVG 1.1//EN"
 "http://www.w3.org/Graphics/SVG/1.1/DTD/svg11.dtd">
<!-- Generated by graphviz version 12.2.1 (0)
 -->
<!-- Title: tests/register_alloc_tests.cpp Pages: 1 -->
<svg width="1485pt" height="326pt"
 viewBox="0.00 0.00 1484.75 326.00" xmlns="http://www.w3.org/2000/svg" xmlns:xlink="http://www.w3.org/1999/xlink">
<g id="graph0" class="graph" transform="scale(1 1) rotate(0) translate(4 322)">
<title>tests/register_alloc_tests.cpp</title>
<!-- Node1 -->
<g id="Node000001" class="node">
<title>Node1</title>
<g id="a_Node000001"><a xlink:title="Unit tests for the compiler register allocation project.">
<polygon fill="#999999" stroke="#666666" points="725.38,-318 626.88,-318 626.88,-287.5 725.38,-287.5 725.38,-318"/>
<text text-anchor="start" x="634.88" y="-304.5" font-family="Helvetica,sans-Serif" font-size="10.00">tests/register_alloc</text>
<text text-anchor="middle" x="676.12" y="-293.25" font-family="Helvetica,sans-Serif" font-size="10.00">_tests.cpp</text>
</a>
</g>
</g>
<!-- Node2 -->
<g id="Node000002" class="node">
<title>Node2</title>
<g id="a_Node000002"><a xlink:title=" ">
<polygon fill="#e0e0e0" stroke="#999999" points="48.25,-251.5 0,-251.5 0,-232.25 48.25,-232.25 48.25,-251.5"/>
<text text-anchor="middle" x="24.12" y="-238" font-family="Helvetica,sans-Serif" font-size="10.00">cassert</text>
</a>
</g>
</g>
<!-- Node1&#45;&gt;Node2 -->
<g id="edge1_Node000001_Node000002" class="edge">
<title>Node1&#45;&gt;Node2</title>
<g id="a_edge1_Node000001_Node000002"><a xlink:title=" ">
<path fill="none" stroke="#63b8ff" d="M626.41,-300.65C522.65,-297.74 275.43,-287.49 59.75,-251.65"/>
<polygon fill="#63b8ff" stroke="#63b8ff" points="60.47,-248.22 50.02,-250.01 59.3,-255.13 60.47,-248.22"/>
</a>
</g>
</g>
<!-- Node3 -->
<g id="Node000003" class="node">
<title>Node3</title>
<g id="a_Node000003"><a xlink:title=" ">
<polygon fill="#e0e0e0" stroke="#999999" points="108.25,-251.5 66,-251.5 66,-232.25 108.25,-232.25 108.25,-251.5"/>
<text text-anchor="middle" x="87.12" y="-238" font-family="Helvetica,sans-Serif" font-size="10.00">cstdio</text>
</a>
</g>
</g>
<!-- Node1&#45;&gt;Node3 -->
<g id="edge2_Node000001_Node000003" class="edge">
<title>Node1&#45;&gt;Node3</title>
<g id="a_edge2_Node000001_Node000003"><a xlink:title=" ">
<path fill="none" stroke="#63b8ff" d="M626.72,-300.46C530.6,-297.27 311.72,-286.69 119.78,-251.66"/>
<polygon fill="#63b8ff" stroke="#63b8ff" points="120.6,-248.25 110.13,-249.87 119.32,-255.13 120.6,-248.25"/>
</a>
</g>
</g>
<!-- Node4 -->
<g id="Node000004" class="node">
<title>Node4</title>
<g id="a_Node000004"><a xlink:title=" ">
<polygon fill="#e0e0e0" stroke="#999999" points="187.62,-251.5 126.62,-251.5 126.62,-232.25 187.62,-232.25 187.62,-251.5"/>
<text text-anchor="middle" x="157.12" y="-238" font-family="Helvetica,sans-Serif" font-size="10.00">filesystem</text>
</a>
</g>
</g>
<!-- Node1&#45;&gt;Node4 -->
<g id="edge3_Node000001_Node000004" class="edge">
<title>Node1&#45;&gt;Node4</title>
<g id="a_edge3_Node000001_Node000004"><a xlink:title=" ">
<path fill="none" stroke="#63b8ff" d="M626.47,-298.42C541.04,-292.28 360.57,-277.53 198.84,-251.78"/>
<polygon fill="#63b8ff" stroke="#63b8ff" points="199.64,-248.36 189.21,-250.23 198.53,-255.27 199.64,-248.36"/>
</a>
</g>
</g>
<!-- Node5 -->
<g id="Node000005" class="node">
<title>Node5</title>
<g id="a_Node000005"><a xlink:title=" ">
<polygon fill="#e0e0e0" stroke="#999999" points="254.62,-251.5 205.62,-251.5 205.62,-232.25 254.62,-232.25 254.62,-251.5"/>
<text text-anchor="middle" x="230.12" y="-238" font-family="Helvetica,sans-Serif" font-size="10.00">fstream</text>
</a>
</g>
</g>
<!-- Node1&#45;&gt;Node5 -->
<g id="edge4_Node000001_Node000005" class="edge">
<title>Node1&#45;&gt;Node5</title>
<g id="a_edge4_Node000001_Node000005"><a xlink:title=" ">
<path fill="none" stroke="#63b8ff" d="M626.41,-297.15C549.5,-289.68 397.18,-273.51 269.12,-251.5 268.11,-251.33 267.08,-251.14 266.04,-250.95"/>
<polygon fill="#63b8ff" stroke="#63b8ff" points="266.79,-247.53 256.3,-249 265.42,-254.4 266.79,-247.53"/>
</a>
</g>
</g>
<!-- Node6 -->
<g id="Node000006" class="node">
<title>Node6</title>
<g id="a_Node000006"><a xlink:title=" ">
<polygon fill="#e0e0e0" stroke="#999999" points="1253.88,-74.5 1200.38,-74.5 1200.38,-55.25 1253.88,-55.25 1253.88,-74.5"/>
<text text-anchor="middle" x="1227.12" y="-61" font-family="Helvetica,sans-Serif" font-size="10.00">iostream</text>
</a>
</g>
</g>
<!-- Node1&#45;&gt;Node6 -->
<g id="edge5_Node000001_Node000006" class="edge">
<title>Node1&#45;&gt;Node6</title>
<g id="a_edge5_Node000001_Node000006"><a xlink:title=" ">
<path fill="none" stroke="#63b8ff" d="M725.78,-300.87C798.96,-298.29 939.32,-288.47 1052.12,-251.5 1144.25,-221.31 1191.95,-217.52 1233.12,-129.75 1239.64,-115.85 1237.41,-98.41 1233.95,-85.26"/>
<polygon fill="#63b8ff" stroke="#63b8ff" points="1237.4,-84.58 1231.1,-76.07 1230.72,-86.66 1237.4,-84.58"/>
</a>
</g>
</g>
<!-- Node7 -->
<g id="Node000007" class="node">
<title>Node7</title>
<g id="a_Node000007"><a xlink:title=" ">
<polygon fill="#e0e0e0" stroke="#999999" points="728.5,-129.75 693.75,-129.75 693.75,-110.5 728.5,-110.5 728.5,-129.75"/>
<text text-anchor="middle" x="711.12" y="-116.25" font-family="Helvetica,sans-Serif" font-size="10.00">map</text>
</a>
</g>
</g>
<!-- Node1&#45;&gt;Node7 -->
<g id="edge6_Node000001_Node000007" class="edge">
<title>Node1&#45;&gt;Node7</title>
<g id="a_edge6_Node000001_Node000007"><a xlink:title=" ">
<path fill="none" stroke="#63b8ff" d="M691.85,-287.15C710.87,-268.29 741.86,-233.46 754.12,-196.25 758.37,-183.38 759.2,-178.32 754.12,-165.75 749.69,-154.76 741.11,-144.96 732.77,-137.37"/>
<polygon fill="#63b8ff" stroke="#63b8ff" points="735.1,-134.76 725.19,-131.02 730.61,-140.12 735.1,-134.76"/>
</a>
</g>
</g>
<!-- Node8 -->
<g id="Node000008" class="node">
<title>Node8</title>
<g id="a_Node000008"><a xlink:title=" ">
<polygon fill="#e0e0e0" stroke="#999999" points="1407.75,-251.5 1356.5,-251.5 1356.5,-232.25 1407.75,-232.25 1407.75,-251.5"/>
<text text-anchor="middle" x="1382.12" y="-238" font-family="Helvetica,sans-Serif" font-size="10.00">memory</text>
</a>
</g>
</g>
<!-- Node1&#45;&gt;Node8 -->
<g id="edge7_Node000001_Node000008" class="edge">
<title>Node1&#45;&gt;Node8</title>
<g id="a_edge7_Node000001_Node000008"><a xlink:title=" ">
<path fill="none" stroke="#63b8ff" d="M725.67,-300.33C836.61,-296.65 1113.19,-284.66 1342.12,-251.5 1343.14,-251.35 1344.17,-251.2 1345.2,-251.03"/>
<polygon fill="#63b8ff" stroke="#63b8ff" points="1345.71,-254.49 1354.91,-249.24 1344.44,-247.61 1345.71,-254.49"/>
</a>
</g>
</g>
<!-- Node9 -->
<g id="Node000009" class="node">
<title>Node9</title>
<g id="a_Node000009"><a xlink:title=" ">
<polygon fill="#e0e0e0" stroke="#999999" points="511.88,-74.5 482.38,-74.5 482.38,-55.25 511.88,-55.25 511.88,-74.5"/>
<text text-anchor="middle" x="497.12" y="-61" font-family="Helvetica,sans-Serif" font-size="10.00">set</text>
</a>
</g>
</g>
<!-- Node1&#45;&gt;Node9 -->
<g id="edge8_Node000001_Node000009" class="edge">
<title>Node1&#45;&gt;Node9</title>
<g id="a_edge8_Node000001_Node000009"><a xlink:title=" ">
<path fill="none" stroke="#63b8ff" d="M626.83,-295.76C570.57,-288.02 483.1,-272.94 458.12,-251.5 410.53,-210.65 420.11,-164.44 452.12,-110.5 458.46,-99.83 467.95,-89.89 476.59,-82.12"/>
<polygon fill="#63b8ff" stroke="#63b8ff" points="478.61,-85 483.95,-75.85 474.07,-79.67 478.61,-85"/>
</a>
</g>
</g>
<!-- Node10 -->
<g id="Node000010" class="node">
<title>Node10</title>
<g id="a_Node000010"><a xlink:title=" ">
<polygon fill="#e0e0e0" stroke="#999999" points="1476.75,-251.5 1425.5,-251.5 1425.5,-232.25 1476.75,-232.25 1476.75,-251.5"/>
<text text-anchor="middle" x="1451.12" y="-238" font-family="Helvetica,sans-Serif" font-size="10.00">sstream</text>
</a>
</g>
</g>
<!-- Node1&#45;&gt;Node10 -->
<g id="edge9_Node000001_Node000010" class="edge">
<title>Node1&#45;&gt;Node10</title>
<g id="a_edge9_Node000001_Node000010"><a xlink:title=" ">
<path fill="none" stroke="#63b8ff" d="M725.46,-301.47C843.24,-300.16 1150.1,-292.86 1413.9,-251.75"/>
<polygon fill="#63b8ff" stroke="#63b8ff" points="1414.41,-255.21 1423.74,-250.19 1413.32,-248.3 1414.41,-255.21"/>
</a>
</g>
</g>
<!-- Node11 -->
<g id="Node000011" class="node">
<title>Node11</title>
<g id="a_Node000011"><a xlink:title=" ">
<polygon fill="#e0e0e0" stroke="#999999" points="1103.12,-19.25 1063.12,-19.25 1063.12,0 1103.12,0 1103.12,-19.25"/>
<text text-anchor="middle" x="1083.12" y="-5.75" font-family="Helvetica,sans-Serif" font-size="10.00">string</text>
</a>
</g>
</g>
<!-- Node1&#45;&gt;Node11 -->
<g id="edge10_Node000001_Node000011" class="edge">
<title>Node1&#45;&gt;Node11</title>
<g id="a_edge10_Node000001_Node000011"><a xlink:title=" ">
<path fill="none" stroke="#63b8ff" d="M725.67,-297.89C877.82,-285.39 1328.12,-243.21 1328.12,-182 1328.12,-182 1328.12,-182 1328.12,-119.12 1328.12,-26.94 1181.32,-12.46 1114.99,-10.62"/>
<polygon fill="#63b8ff" stroke="#63b8ff" points="1115.17,-7.12 1105.11,-10.44 1115.04,-14.12 1115.17,-7.12"/>
</a>
</g>
</g>
<!-- Node12 -->
<g id="Node000012" class="node">
<title>Node12</title>
<g id="a_Node000012"><a xlink:title=" ">
<polygon fill="#e0e0e0" stroke="#999999" points="475.62,-19.25 432.62,-19.25 432.62,0 475.62,0 475.62,-19.25"/>
<text text-anchor="middle" x="454.12" y="-5.75" font-family="Helvetica,sans-Serif" font-size="10.00">vector</text>
</a>
</g>
</g>
<!-- Node1&#45;&gt;Node12 -->
<g id="edge11_Node000001_Node000012" class="edge">
<title>Node1&#45;&gt;Node12</title>
<g id="a_edge11_Node000001_Node000012"><a xlink:title=" ">
<path fill="none" stroke="#63b8ff" d="M626.52,-296.36C565.49,-288.89 466.36,-273.74 437.12,-251.5 364.63,-196.36 330.05,-132.61 378.12,-55.25 388.03,-39.31 405.9,-28.39 421.82,-21.35"/>
<polygon fill="#63b8ff" stroke="#63b8ff" points="423.04,-24.64 431.01,-17.65 420.42,-18.14 423.04,-24.64"/>
</a>
</g>
</g>
<!-- Node13 -->
<g id="Node000013" class="node">
<title>Node13</title>
<g id="a_Node000013"><a xlink:href="_graph_coloring_8h.html" target="_top" xlink:title="Graph&#45;coloring&#45;based register allocation algorithms.">
<polygon fill="white" stroke="#666666" points="973.38,-190.62 838.88,-190.62 838.88,-171.38 973.38,-171.38 973.38,-190.62"/>
<text text-anchor="middle" x="906.12" y="-177.12" font-family="Helvetica,sans-Serif" font-size="10.00">algorithms/GraphColoring.h</text>
</a>
</g>
</g>
<!-- Node1&#45;&gt;Node13 -->
<g id="edge12_Node000001_Node000013" class="edge">
<title>Node1&#45;&gt;Node13</title>
<g id="a_edge12_Node000001_Node000013"><a xlink:title=" ">
<path fill="none" stroke="#63b8ff" d="M711.06,-287.04C733.15,-277.47 762.13,-264.41 787.12,-251.5 820.82,-234.09 858.42,-211.59 882.17,-196.98"/>
<polygon fill="#63b8ff" stroke="#63b8ff" points="883.79,-200.09 890.45,-191.85 880.11,-194.14 883.79,-200.09"/>
</a>
</g>
</g>
<!-- Node18 -->
<g id="Node000018" class="node">
<title>Node18</title>
<g id="a_Node000018"><a xlink:href="_parameters_8h.html" target="_top" xlink:title="Configuration parameters parsed from the registers/config input file.">
<polygon fill="white" stroke="#666666" points="1223.62,-129.75 1114.62,-129.75 1114.62,-110.5 1223.62,-110.5 1223.62,-129.75"/>
<text text-anchor="middle" x="1169.12" y="-116.25" font-family="Helvetica,sans-Serif" font-size="10.00">models/Parameters.h</text>
</a>
</g>
</g>
<!-- Node1&#45;&gt;Node18 -->
<g id="edge51_Node000001_Node000018" class="edge">
<title>Node1&#45;&gt;Node18</title>
<g id="a_edge51_Node000001_Node000018"><a xlink:title=" ">
<path fill="none" stroke="#63b8ff" d="M725.76,-298.21C790.61,-292.67 907.2,-279.53 1003.12,-251.5 1061.43,-234.46 1083.42,-237.37 1128.12,-196.25 1144.67,-181.03 1155.98,-157.57 1162.46,-140.91"/>
<polygon fill="#63b8ff" stroke="#63b8ff" points="1165.71,-142.23 1165.82,-131.63 1159.13,-139.84 1165.71,-142.23"/>
</a>
</g>
</g>
<!-- Node19 -->
<g id="Node000019" class="node">
<title>Node19</title>
<g id="a_Node000019"><a xlink:href="_web_8h.html" target="_top" xlink:title="Data model for a live web (merged live ranges of a variable).">
<polygon fill="white" stroke="#666666" points="562.25,-129.75 484,-129.75 484,-110.5 562.25,-110.5 562.25,-129.75"/>
<text text-anchor="middle" x="523.12" y="-116.25" font-family="Helvetica,sans-Serif" font-size="10.00">models/Web.h</text>
</a>
</g>
</g>
<!-- Node1&#45;&gt;Node19 -->
<g id="edge52_Node000001_Node000019" class="edge">
<title>Node1&#45;&gt;Node19</title>
<g id="a_edge52_Node000001_Node000019"><a xlink:title=" ">
<path fill="none" stroke="#63b8ff" d="M626.65,-293.9C573.58,-282.55 491.85,-255.95 454.12,-196.25 446.88,-184.79 447.65,-177.66 454.12,-165.75 461.44,-152.3 474.75,-142.29 487.74,-135.19"/>
<polygon fill="#63b8ff" stroke="#63b8ff" points="489.21,-138.37 496.61,-130.79 486.1,-132.1 489.21,-138.37"/>
</a>
</g>
</g>
<!-- Node20 -->
<g id="Node000020" class="node">
<title>Node20</title>
<g id="a_Node000020"><a xlink:href="_live_range_8h.html" target="_top" xlink:title="Data model for a single live range of a variable.">
<polygon fill="white" stroke="#666666" points="634.75,-74.5 529.5,-74.5 529.5,-55.25 634.75,-55.25 634.75,-74.5"/>
<text text-anchor="middle" x="582.12" y="-61" font-family="Helvetica,sans-Serif" font-size="10.00">models/LiveRange.h</text>
</a>
</g>
</g>
<!-- Node1&#45;&gt;Node20 -->
<g id="edge50_Node000001_Node000020" class="edge">
<title>Node1&#45;&gt;Node20</title>
<g id="a_edge50_Node000001_Node000020"><a xlink:title=" ">
<path fill="none" stroke="#63b8ff" d="M626.48,-298.18C585.22,-293.13 526.6,-280.94 484.12,-251.5 459.42,-234.38 454.22,-224.9 445.12,-196.25 432.91,-157.77 445.15,-137.55 475.12,-110.5 491.51,-95.71 513.5,-85.4 533.28,-78.45"/>
<polygon fill="#63b8ff" stroke="#63b8ff" points="534.15,-81.85 542.56,-75.4 531.96,-75.2 534.15,-81.85"/>
</a>
</g>
</g>
<!-- Node21 -->
<g id="Node000021" class="node">
<title>Node21</title>
<g id="a_Node000021"><a xlink:href="_interference_graph_8h.html" target="_top" xlink:title="Builds live webs and the interference graph from parsed live ranges.">
<polygon fill="white" stroke="#666666" points="745.25,-196.25 607,-196.25 607,-165.75 745.25,-165.75 745.25,-196.25"/>
<text text-anchor="start" x="615" y="-182.75" font-family="Helvetica,sans-Serif" font-size="10.00">data_structures/Interference</text>
<text text-anchor="middle" x="676.12" y="-171.5" font-family="Helvetica,sans-Serif" font-size="10.00">Graph.h</text>
</a>
</g>
</g>
<!-- Node1&#45;&gt;Node21 -->
<g id="edge32_Node000001_Node000021" class="edge">
<title>Node1&#45;&gt;Node21</title>
<g id="a_edge32_Node000001_Node000021"><a xlink:title=" ">
<path fill="none" stroke="#63b8ff" d="M676.12,-287.07C676.12,-267.39 676.12,-232.14 676.12,-207.94"/>
<polygon fill="#63b8ff" stroke="#63b8ff" points="679.63,-207.94 676.13,-197.94 672.63,-207.94 679.63,-207.94"/>
</a>
</g>
</g>
<!-- Node22 -->
<g id="Node000022" class="node">
<title>Node22</title>
<g id="a_Node000022"><a xlink:href="_file_parser_8h.html" target="_top" xlink:title="Parses the live&#45;ranges input file and the registers/config file.">
<polygon fill="white" stroke="#666666" points="1069.25,-190.62 991,-190.62 991,-171.38 1069.25,-171.38 1069.25,-190.62"/>
<text text-anchor="middle" x="1030.12" y="-177.12" font-family="Helvetica,sans-Serif" font-size="10.00">io/FileParser.h</text>
</a>
</g>
</g>
<!-- Node1&#45;&gt;Node22 -->
<g id="edge39_Node000001_Node000022" class="edge">
<title>Node1&#45;&gt;Node22</title>
<g id="a_edge39_Node000001_Node000022"><a xlink:title=" ">
<path fill="none" stroke="#63b8ff" d="M725.85,-298.05C800.58,-291.75 937.56,-277.05 979.12,-251.5 998.6,-239.53 1012.99,-217.1 1021.43,-200.96"/>
<polygon fill="#63b8ff" stroke="#63b8ff" points="1024.39,-202.87 1025.65,-192.35 1018.11,-199.79 1024.39,-202.87"/>
</a>
</g>
</g>
<!-- Node23 -->
<g id="Node000023" class="node">
<title>Node23</title>
<g id="a_Node000023"><a xlink:href="_output_writer_8h.html" target="_top" xlink:title="Writes the register allocation result to a text file.">
<polygon fill="white" stroke="#666666" points="551.5,-190.62 462.75,-190.62 462.75,-171.38 551.5,-171.38 551.5,-190.62"/>
<text text-anchor="middle" x="507.12" y="-177.12" font-family="Helvetica,sans-Serif" font-size="10.00">io/OutputWriter.h</text>
</a>
</g>
</g>
<!-- Node1&#45;&gt;Node23 -->
<g id="edge45_Node000001_Node000023" class="edge">
<title>Node1&#45;&gt;Node23</title>
<g id="a_edge45_Node000001_Node000023"><a xlink:title=" ">
<path fill="none" stroke="#63b8ff" d="M655.4,-287.07C623.29,-264.31 561.8,-220.74 529,-197.5"/>
<polygon fill="#63b8ff" stroke="#63b8ff" points="531.23,-194.79 521.05,-191.86 527.18,-200.5 531.23,-194.79"/>
</a>
</g>
</g>
<!-- Node24 -->
<g id="Node000024" class="node">
<title>Node24</title>
<g id="a_Node000024"><a xlink:href="_allocation_logic_8h.html" target="_top" xlink:title="Orchestration layer: runs the selected algorithm and writes output.">
<polygon fill="white" stroke="#666666" points="970.12,-251.5 840.12,-251.5 840.12,-232.25 970.12,-232.25 970.12,-251.5"/>
<text text-anchor="middle" x="905.12" y="-238" font-family="Helvetica,sans-Serif" font-size="10.00">services/AllocationLogic.h</text>
</a>
</g>
</g>
<!-- Node1&#45;&gt;Node24 -->
<g id="edge53_Node000001_Node000024" class="edge">
<title>Node1&#45;&gt;Node24</title>
<g id="a_edge53_Node000001_Node000024"><a xlink:title=" ">
<path fill="none" stroke="#63b8ff" d="M725.81,-288.98C765.32,-278.82 820.18,-264.71 858.79,-254.79"/>
<polygon fill="#63b8ff" stroke="#63b8ff" points="859.44,-258.24 868.25,-252.36 857.69,-251.46 859.44,-258.24"/>
</a>
</g>
</g>
<!-- Node13&#45;&gt;Node7 -->
<g id="edge13_Node000013_Node000007" class="edge">
<title>Node13&#45;&gt;Node7</title>
<g id="a_edge13_Node000013_Node000007"><a xlink:title=" ">
<path fill="none" stroke="#63b8ff" d="M876.08,-170.93C838.97,-159.72 776.28,-140.8 739.8,-129.78"/>
<polygon fill="#63b8ff" stroke="#63b8ff" points="740.98,-126.48 730.4,-126.94 738.96,-133.18 740.98,-126.48"/>
</a>
</g>
</g>
<!-- Node13&#45;&gt;Node9 -->
<g id="edge14_Node000013_Node000009" class="edge">
<title>Node13&#45;&gt;Node9</title>
<g id="a_edge14_Node000013_Node000009"><a xlink:title=" ">
<path fill="none" stroke="#63b8ff" d="M882.78,-171.03C857.4,-161.19 815.7,-144.8 780.12,-129.75 760.84,-121.59 757.17,-116.54 737.12,-110.5 646.99,-83.34 616.8,-98.55 523.42,-74.95"/>
<polygon fill="#63b8ff" stroke="#63b8ff" points="524.36,-71.58 513.8,-72.43 522.58,-78.35 524.36,-71.58"/>
</a>
</g>
</g>
<!-- Node13&#45;&gt;Node11 -->
<g id="edge15_Node000013_Node000011" class="edge">
<title>Node13&#45;&gt;Node11</title>
<g id="a_edge15_Node000013_Node000011"><a xlink:title=" ">
<path fill="none" stroke="#63b8ff" d="M944.59,-170.92C970.64,-163.28 1004.63,-150.26 1029.12,-129.75 1059.79,-104.08 1073.82,-57.35 1079.59,-30.69"/>
<polygon fill="#63b8ff" stroke="#63b8ff" points="1082.96,-31.66 1081.45,-21.18 1076.09,-30.32 1082.96,-31.66"/>
</a>
</g>
</g>
<!-- Node13&#45;&gt;Node12 -->
<g id="edge16_Node000013_Node000012" class="edge">
<title>Node13&#45;&gt;Node12</title>
<g id="a_edge16_Node000013_Node000012"><a xlink:title=" ">
<path fill="none" stroke="#63b8ff" d="M889.97,-170.99C865.16,-157.28 816.05,-130.65 773.12,-110.5 735.62,-92.89 725.15,-90.97 687.12,-74.5 667.91,-66.18 663.96,-61.95 644.12,-55.25 590.16,-37.02 525.14,-23.49 486.85,-16.35"/>
<polygon fill="#63b8ff" stroke="#63b8ff" points="487.82,-12.97 477.36,-14.61 486.56,-19.85 487.82,-12.97"/>
</a>
</g>
</g>
<!-- Node14 -->
<g id="Node000014" class="node">
<title>Node14</title>
<g id="a_Node000014"><a xlink:href="_graph_8h.html" target="_top" xlink:title=" ">
<polygon fill="white" stroke="#666666" points="1019.62,-129.75 898.62,-129.75 898.62,-110.5 1019.62,-110.5 1019.62,-129.75"/>
<text text-anchor="middle" x="959.12" y="-116.25" font-family="Helvetica,sans-Serif" font-size="10.00">data_structures/Graph.h</text>
</a>
</g>
</g>
<!-- Node13&#45;&gt;Node14 -->
<g id="edge17_Node000013_Node000014" class="edge">
<title>Node13&#45;&gt;Node14</title>
<g id="a_edge17_Node000013_Node000014"><a xlink:title=" ">
<path fill="none" stroke="#63b8ff" d="M914.17,-171.06C921.88,-162.5 933.71,-149.35 943.31,-138.7"/>
<polygon fill="#63b8ff" stroke="#63b8ff" points="945.9,-141.05 949.99,-131.28 940.7,-136.37 945.9,-141.05"/>
</a>
</g>
</g>
<!-- Node13&#45;&gt;Node18 -->
<g id="edge23_Node000013_Node000018" class="edge">
<title>Node13&#45;&gt;Node18</title>
<g id="a_edge23_Node000013_Node000018"><a xlink:title=" ">
<path fill="none" stroke="#63b8ff" d="M946.64,-170.93C992.49,-160.67 1067.29,-143.92 1117.34,-132.72"/>
<polygon fill="#63b8ff" stroke="#63b8ff" points="1118.09,-136.14 1127.08,-130.54 1116.56,-129.31 1118.09,-136.14"/>
</a>
</g>
</g>
<!-- Node13&#45;&gt;Node19 -->
<g id="edge25_Node000013_Node000019" class="edge">
<title>Node13&#45;&gt;Node19</title>
<g id="a_edge25_Node000013_Node000019"><a xlink:title=" ">
<path fill="none" stroke="#63b8ff" d="M847.12,-170.93C772.28,-159.43 644.5,-139.78 573.84,-128.92"/>
<polygon fill="#63b8ff" stroke="#63b8ff" points="574.5,-125.48 564.09,-127.42 573.44,-132.4 574.5,-125.48"/>
</a>
</g>
</g>
<!-- Node14&#45;&gt;Node6 -->
<g id="edge18_Node000014_Node000006" class="edge">
<title>Node14&#45;&gt;Node6</title>
<g id="a_edge18_Node000014_Node000006"><a xlink:title=" ">
<path fill="none" stroke="#63b8ff" d="M1004.89,-110.03C1056.68,-99.74 1140.13,-83.16 1188.69,-73.51"/>
<polygon fill="#63b8ff" stroke="#63b8ff" points="1189.34,-76.95 1198.46,-71.57 1187.97,-70.09 1189.34,-76.95"/>
</a>
</g>
</g>
<!-- Node14&#45;&gt;Node12 -->
<g id="edge19_Node000014_Node000012" class="edge">
<title>Node14&#45;&gt;Node12</title>
<g id="a_edge19_Node000014_Node000012"><a xlink:title=" ">
<path fill="none" stroke="#63b8ff" d="M928.13,-110.09C882,-96.85 792.38,-71.93 715.12,-55.25 633.76,-37.68 536.92,-22.64 487.2,-15.34"/>
<polygon fill="#63b8ff" stroke="#63b8ff" points="487.8,-11.89 477.4,-13.91 486.79,-18.82 487.8,-11.89"/>
</a>
</g>
</g>
<!-- Node15 -->
<g id="Node000015" class="node">
<title>Node15</title>
<g id="a_Node000015"><a xlink:title=" ">
<polygon fill="#e0e0e0" stroke="#999999" points="923.25,-74.5 881,-74.5 881,-55.25 923.25,-55.25 923.25,-74.5"/>
<text text-anchor="middle" x="902.12" y="-61" font-family="Helvetica,sans-Serif" font-size="10.00">queue</text>
</a>
</g>
</g>
<!-- Node14&#45;&gt;Node15 -->
<g id="edge20_Node000014_Node000015" class="edge">
<title>Node14&#45;&gt;Node15</title>
<g id="a_edge20_Node000014_Node000015"><a xlink:title=" ">
<path fill="none" stroke="#63b8ff" d="M949.46,-110.09C941.38,-102.55 929.66,-91.6 919.9,-82.48"/>
<polygon fill="#63b8ff" stroke="#63b8ff" points="922.45,-80.08 912.76,-75.81 917.68,-85.19 922.45,-80.08"/>
</a>
</g>
</g>
<!-- Node16 -->
<g id="Node000016" class="node">
<title>Node16</title>
<g id="a_Node000016"><a xlink:title=" ">
<polygon fill="#e0e0e0" stroke="#999999" points="980.75,-74.5 941.5,-74.5 941.5,-55.25 980.75,-55.25 980.75,-74.5"/>
<text text-anchor="middle" x="961.12" y="-61" font-family="Helvetica,sans-Serif" font-size="10.00">limits</text>
</a>
</g>
</g>
<!-- Node14&#45;&gt;Node16 -->
<g id="edge21_Node000014_Node000016" class="edge">
<title>Node14&#45;&gt;Node16</title>
<g id="a_edge21_Node000014_Node000016"><a xlink:title=" ">
<path fill="none" stroke="#63b8ff" d="M959.46,-110.33C959.7,-103.74 960.05,-94.46 960.37,-86.07"/>
<polygon fill="#63b8ff" stroke="#63b8ff" points="963.85,-86.5 960.73,-76.37 956.86,-86.23 963.85,-86.5"/>
</a>
</g>
</g>
<!-- Node17 -->
<g id="Node000017" class="node">
<title>Node17</title>
<g id="a_Node000017"><a xlink:title=" ">
<polygon fill="#e0e0e0" stroke="#999999" points="1055,-74.5 999.25,-74.5 999.25,-55.25 1055,-55.25 1055,-74.5"/>
<text text-anchor="middle" x="1027.12" y="-61" font-family="Helvetica,sans-Serif" font-size="10.00">algorithm</text>
</a>
</g>
</g>
<!-- Node14&#45;&gt;Node17 -->
<g id="edge22_Node000014_Node000017" class="edge">
<title>Node14&#45;&gt;Node17</title>
<g id="a_edge22_Node000014_Node000017"><a xlink:title=" ">
<path fill="none" stroke="#63b8ff" d="M970.66,-110.09C980.59,-102.32 995.14,-90.92 1006.98,-81.65"/>
<polygon fill="#63b8ff" stroke="#63b8ff" points="1008.85,-84.63 1014.57,-75.71 1004.54,-79.12 1008.85,-84.63"/>
</a>
</g>
</g>
<!-- Node18&#45;&gt;Node11 -->
<g id="edge24_Node000018_Node000011" class="edge">
<title>Node18&#45;&gt;Node11</title>
<g id="a_edge24_Node000018_Node000011"><a xlink:title=" ">
<path fill="none" stroke="#63b8ff" d="M1165.65,-110.25C1160.33,-97.31 1149.26,-72.9 1135.12,-55.25 1126.56,-44.55 1115.17,-34.45 1105.24,-26.57"/>
<polygon fill="#63b8ff" stroke="#63b8ff" points="1107.58,-23.95 1097.5,-20.67 1103.33,-29.51 1107.58,-23.95"/>
</a>
</g>
</g>
<!-- Node19&#45;&gt;Node9 -->
<g id="edge27_Node000019_Node000009" class="edge">
<title>Node19&#45;&gt;Node9</title>
<g id="a_edge27_Node000019_Node000009"><a xlink:title=" ">
<path fill="none" stroke="#63b8ff" d="M518.83,-110.33C515.5,-103.51 510.76,-93.81 506.56,-85.2"/>
<polygon fill="#63b8ff" stroke="#63b8ff" points="509.71,-83.67 502.18,-76.22 503.42,-86.74 509.71,-83.67"/>
</a>
</g>
</g>
<!-- Node19&#45;&gt;Node11 -->
<g id="edge26_Node000019_Node000011" class="edge">
<title>Node19&#45;&gt;Node11</title>
<g id="a_edge26_Node000019_Node000011"><a xlink:title=" ">
<path fill="none" stroke="#63b8ff" d="M552.41,-110.09C597.35,-96.52 686.21,-70.79 763.12,-55.25 867.84,-34.1 993.86,-19.72 1051.53,-13.74"/>
<polygon fill="#63b8ff" stroke="#63b8ff" points="1051.66,-17.25 1061.26,-12.75 1050.95,-10.28 1051.66,-17.25"/>
</a>
</g>
</g>
<!-- Node19&#45;&gt;Node12 -->
<g id="edge28_Node000019_Node000012" class="edge">
<title>Node19&#45;&gt;Node12</title>
<g id="a_edge28_Node000019_Node000012"><a xlink:title=" ">
<path fill="none" stroke="#63b8ff" d="M509.32,-110.09C498.04,-102.02 482.48,-89.23 473.12,-74.5 464.67,-61.18 459.83,-43.92 457.15,-30.7"/>
<polygon fill="#63b8ff" stroke="#63b8ff" points="460.63,-30.26 455.46,-21.01 453.73,-31.47 460.63,-30.26"/>
</a>
</g>
</g>
<!-- Node19&#45;&gt;Node20 -->
<g id="edge29_Node000019_Node000020" class="edge">
<title>Node19&#45;&gt;Node20</title>
<g id="a_edge29_Node000019_Node000020"><a xlink:title=" ">
<path fill="none" stroke="#63b8ff" d="M533.13,-110.09C541.49,-102.55 553.62,-91.6 563.73,-82.48"/>
<polygon fill="#63b8ff" stroke="#63b8ff" points="566.06,-85.09 571.14,-75.79 561.37,-79.89 566.06,-85.09"/>
</a>
</g>
</g>
<!-- Node20&#45;&gt;Node11 -->
<g id="edge30_Node000020_Node000011" class="edge">
<title>Node20&#45;&gt;Node11</title>
<g id="a_edge30_Node000020_Node000011"><a xlink:title=" ">
<path fill="none" stroke="#63b8ff" d="M634.79,-58.28C738.72,-47.23 967.36,-22.93 1051.36,-14"/>
<polygon fill="#63b8ff" stroke="#63b8ff" points="1051.59,-17.5 1061.17,-12.96 1050.85,-10.54 1051.59,-17.5"/>
</a>
</g>
</g>
<!-- Node20&#45;&gt;Node12 -->
<g id="edge31_Node000020_Node000012" class="edge">
<title>Node20&#45;&gt;Node12</title>
<g id="a_edge31_Node000020_Node000012"><a xlink:title=" ">
<path fill="none" stroke="#63b8ff" d="M560.41,-54.84C540.09,-46.39 509.48,-33.65 486.32,-24.02"/>
<polygon fill="#63b8ff" stroke="#63b8ff" points="487.92,-20.89 477.34,-20.28 485.23,-27.36 487.92,-20.89"/>
</a>
</g>
</g>
<!-- Node21&#45;&gt;Node7 -->
<g id="edge33_Node000021_Node000007" class="edge">
<title>Node21&#45;&gt;Node7</title>
<g id="a_edge33_Node000021_Node000007"><a xlink:title=" ">
<path fill="none" stroke="#63b8ff" d="M684.78,-165.45C689.34,-157.78 694.99,-148.27 699.88,-140.04"/>
<polygon fill="#63b8ff" stroke="#63b8ff" points="702.85,-141.89 704.96,-131.5 696.84,-138.31 702.85,-141.89"/>
</a>
</g>
</g>
<!-- Node21&#45;&gt;Node11 -->
<g id="edge34_Node000021_Node000011" class="edge">
<title>Node21&#45;&gt;Node11</title>
<g id="a_edge34_Node000021_Node000011"><a xlink:title=" ">
<path fill="none" stroke="#63b8ff" d="M673.76,-165.41C672.13,-149.93 672.18,-125.68 685.12,-110.5 699.18,-94.02 851.12,-60.57 872.12,-55.25 935.23,-39.28 1009.93,-24.42 1051.37,-16.53"/>
<polygon fill="#63b8ff" stroke="#63b8ff" points="1051.97,-19.98 1061.15,-14.68 1050.67,-13.1 1051.97,-19.98"/>
</a>
</g>
</g>
<!-- Node21&#45;&gt;Node12 -->
<g id="edge35_Node000021_Node000012" class="edge">
<title>Node21&#45;&gt;Node12</title>
<g id="a_edge35_Node000021_Node000012"><a xlink:title=" ">
<path fill="none" stroke="#63b8ff" d="M606.55,-170.23C556.19,-161.79 493.81,-148.07 475.12,-129.75 448.83,-103.98 448.7,-57.64 451.23,-30.99"/>
<polygon fill="#63b8ff" stroke="#63b8ff" points="454.69,-31.51 452.41,-21.16 447.74,-30.68 454.69,-31.51"/>
</a>
</g>
</g>
<!-- Node21&#45;&gt;Node14 -->
<g id="edge36_Node000021_Node000014" class="edge">
<title>Node21&#45;&gt;Node14</title>
<g id="a_edge36_Node000021_Node000014"><a xlink:title=" ">
<path fill="none" stroke="#63b8ff" d="M745.72,-165.52C794.6,-155.35 859.08,-141.94 904.32,-132.53"/>
<polygon fill="#63b8ff" stroke="#63b8ff" points="904.82,-136 913.9,-130.53 903.4,-129.14 904.82,-136"/>
</a>
</g>
</g>
<!-- Node21&#45;&gt;Node19 -->
<g id="edge38_Node000021_Node000019" class="edge">
<title>Node21&#45;&gt;Node19</title>
<g id="a_edge38_Node000021_Node000019"><a xlink:title=" ">
<path fill="none" stroke="#63b8ff" d="M637.91,-165.3C613.15,-155.77 581.19,-143.47 557.28,-134.27"/>
<polygon fill="#63b8ff" stroke="#63b8ff" points="558.59,-131.02 548,-130.7 556.08,-137.56 558.59,-131.02"/>
</a>
</g>
</g>
<!-- Node21&#45;&gt;Node20 -->
<g id="edge37_Node000021_Node000020" class="edge">
<title>Node21&#45;&gt;Node20</title>
<g id="a_edge37_Node000021_Node000020"><a xlink:title=" ">
<path fill="none" stroke="#63b8ff" d="M664.22,-165.55C647.09,-144.75 615.52,-106.42 596.92,-83.83"/>
<polygon fill="#63b8ff" stroke="#63b8ff" points="599.62,-81.61 590.56,-76.12 594.22,-86.06 599.62,-81.61"/>
</a>
</g>
</g>
<!-- Node22&#45;&gt;Node7 -->
<g id="edge40_Node000022_Node000007" class="edge">
<title>Node22&#45;&gt;Node7</title>
<g id="a_edge40_Node000022_Node000007"><a xlink:title=" ">
<path fill="none" stroke="#63b8ff" d="M1001.6,-170.89C995.23,-169.04 988.48,-167.21 982.12,-165.75 894.76,-145.67 789.56,-131.02 739.84,-124.65"/>
<polygon fill="#63b8ff" stroke="#63b8ff" points="740.57,-121.21 730.21,-123.43 739.7,-128.16 740.57,-121.21"/>
</a>
</g>
</g>
<!-- Node22&#45;&gt;Node11 -->
<g id="edge41_Node000022_Node000011" class="edge">
<title>Node22&#45;&gt;Node11</title>
<g id="a_edge41_Node000022_Node000011"><a xlink:title=" ">
<path fill="none" stroke="#63b8ff" d="M1038.42,-171.02C1053.63,-153.85 1085.52,-114.51 1097.12,-74.5 1101.44,-59.64 1097.19,-42.5 1092.27,-29.72"/>
<polygon fill="#63b8ff" stroke="#63b8ff" points="1095.59,-28.57 1088.4,-20.78 1089.17,-31.35 1095.59,-28.57"/>
</a>
</g>
</g>
<!-- Node22&#45;&gt;Node12 -->
<g id="edge42_Node000022_Node000012" class="edge">
<title>Node22&#45;&gt;Node12</title>
<g id="a_edge42_Node000022_Node000012"><a xlink:title=" ">
<path fill="none" stroke="#63b8ff" d="M1003.62,-170.91C964.58,-157.55 889.3,-131.88 825.12,-110.5 776.32,-94.24 762.31,-94.98 715.12,-74.5 698.84,-67.43 696.81,-61.32 680.12,-55.25 614.02,-31.2 532.08,-19.14 487.26,-13.94"/>
<polygon fill="#63b8ff" stroke="#63b8ff" points="487.74,-10.47 477.41,-12.84 486.96,-17.43 487.74,-10.47"/>
</a>
</g>
</g>
<!-- Node22&#45;&gt;Node18 -->
<g id="edge44_Node000022_Node000018" class="edge">
<title>Node22&#45;&gt;Node18</title>
<g id="a_edge44_Node000022_Node000018"><a xlink:title=" ">
<path fill="none" stroke="#63b8ff" d="M1051.54,-170.93C1074.46,-161.22 1111.07,-145.71 1137.35,-134.58"/>
<polygon fill="#63b8ff" stroke="#63b8ff" points="1138.68,-137.82 1146.52,-130.7 1135.95,-131.38 1138.68,-137.82"/>
</a>
</g>
</g>
<!-- Node22&#45;&gt;Node20 -->
<g id="edge43_Node000022_Node000020" class="edge">
<title>Node22&#45;&gt;Node20</title>
<g id="a_edge43_Node000022_Node000020"><a xlink:title=" ">
<path fill="none" stroke="#63b8ff" d="M999.95,-170.89C994.05,-169.15 987.9,-167.37 982.12,-165.75 889.62,-139.8 866.36,-133.71 773.12,-110.5 725.91,-98.75 671.89,-86.21 633.38,-77.43"/>
<polygon fill="#63b8ff" stroke="#63b8ff" points="634.45,-74.08 623.93,-75.28 632.9,-80.91 634.45,-74.08"/>
</a>
</g>
</g>
<!-- Node23&#45;&gt;Node7 -->
<g id="edge46_Node000023_Node000007" class="edge">
<title>Node23&#45;&gt;Node7</title>
<g id="a_edge46_Node000023_Node000007"><a xlink:title=" ">
<path fill="none" stroke="#63b8ff" d="M538.55,-170.93C577.85,-159.59 644.57,-140.33 682.5,-129.39"/>
<polygon fill="#63b8ff" stroke="#63b8ff" points="683.2,-132.83 691.84,-126.69 681.26,-126.1 683.2,-132.83"/>
</a>
</g>
</g>
<!-- Node23&#45;&gt;Node11 -->
<g id="edge47_Node000023_Node000011" class="edge">
<title>Node23&#45;&gt;Node11</title>
<g id="a_edge47_Node000023_Node000011"><a xlink:title=" ">
<path fill="none" stroke="#63b8ff" d="M526.08,-170.89C580.5,-144.87 736.83,-71.03 791.12,-55.25 883.61,-28.38 997.54,-16.92 1051.68,-12.72"/>
<polygon fill="#63b8ff" stroke="#63b8ff" points="1051.68,-16.23 1061.4,-12 1051.17,-9.25 1051.68,-16.23"/>
</a>
</g>
</g>
<!-- Node23&#45;&gt;Node12 -->
<g id="edge48_Node000023_Node000012" class="edge">
<title>Node23&#45;&gt;Node12</title>
<g id="a_edge48_Node000023_Node000012"><a xlink:title=" ">
<path fill="none" stroke="#63b8ff" d="M463.9,-170.95C441.35,-163.8 415.7,-151.29 402.12,-129.75 384.47,-101.74 388.3,-85.34 402.12,-55.25 407.58,-43.37 417.94,-33.47 427.98,-26.03"/>
<polygon fill="#63b8ff" stroke="#63b8ff" points="429.78,-29.04 436.08,-20.53 425.85,-23.25 429.78,-29.04"/>
</a>
</g>
</g>
<!-- Node23&#45;&gt;Node19 -->
<g id="edge49_Node000023_Node000019" class="edge">
<title>Node23&#45;&gt;Node19</title>
<g id="a_edge49_Node000023_Node000019"><a xlink:title=" ">
<path fill="none" stroke="#63b8ff" d="M509.56,-171.06C511.72,-163.1 514.95,-151.19 517.73,-140.99"/>
<polygon fill="#63b8ff" stroke="#63b8ff" points="521.03,-142.18 520.28,-131.61 514.28,-140.34 521.03,-142.18"/>
</a>
</g>
</g>
<!-- Node24&#45;&gt;Node7 -->
<g id="edge54_Node000024_Node000007" class="edge">
<title>Node24&#45;&gt;Node7</title>
<g id="a_edge54_Node000024_Node000007"><a xlink:title=" ">
<path fill="none" stroke="#63b8ff" d="M889.1,-231.84C873.75,-223.07 850.06,-209.22 830.12,-196.25 810.49,-183.47 806.8,-178.47 787.12,-165.75 770.89,-155.25 752.17,-144.25 737.37,-135.8"/>
<polygon fill="#63b8ff" stroke="#63b8ff" points="739.12,-132.76 728.7,-130.88 735.67,-138.85 739.12,-132.76"/>
</a>
</g>
</g>
<!-- Node24&#45;&gt;Node11 -->
<g id="edge55_Node000024_Node000011" class="edge">
<title>Node24&#45;&gt;Node11</title>
<g id="a_edge55_Node000024_Node000011"><a xlink:title=" ">
<path fill="none" stroke="#63b8ff" d="M970.26,-237.47C1064.89,-228.39 1232.46,-195.23 1263.12,-74.5 1265.23,-66.21 1268.4,-61.99 1263.12,-55.25 1245.01,-32.1 1161.16,-19.27 1114.56,-13.82"/>
<polygon fill="#63b8ff" stroke="#63b8ff" points="1115.14,-10.36 1104.81,-12.73 1114.36,-17.32 1115.14,-10.36"/>
</a>
</g>
</g>
<!-- Node24&#45;&gt;Node12 -->
<g id="edge56_Node000024_Node000012" class="edge">
<title>Node24&#45;&gt;Node12</title>
<g id="a_edge56_Node000024_Node000012"><a xlink:title=" ">
<path fill="none" stroke="#63b8ff" d="M839.82,-239.86C731.64,-237.28 520.62,-228.18 454.12,-196.25 392.09,-166.46 357.74,-115.97 390.12,-55.25 397.15,-42.08 409.98,-31.99 422.31,-24.75"/>
<polygon fill="#63b8ff" stroke="#63b8ff" points="423.92,-27.86 431.09,-20.06 420.62,-21.69 423.92,-27.86"/>
</a>
</g>
</g>
<!-- Node24&#45;&gt;Node13 -->
<g id="edge57_Node000024_Node000013" class="edge">
<title>Node24&#45;&gt;Node13</title>
<g id="a_edge57_Node000024_Node000013"><a xlink:title=" ">
<path fill="none" stroke="#63b8ff" d="M905.28,-231.93C905.41,-224.15 905.61,-212.58 905.78,-202.53"/>
<polygon fill="#63b8ff" stroke="#63b8ff" points="909.28,-202.6 905.95,-192.54 902.28,-202.48 909.28,-202.6"/>
</a>
</g>
</g>
<!-- Node24&#45;&gt;Node14 -->
<g id="edge58_Node000024_Node000014" class="edge">
<title>Node24&#45;&gt;Node14</title>
<g id="a_edge58_Node000024_Node000014"><a xlink:title=" ">
<path fill="none" stroke="#63b8ff" d="M970.38,-232.41C1013.61,-225.32 1064.73,-213.54 1078.12,-196.25 1086.43,-185.53 1085.85,-176.89 1078.12,-165.75 1066.99,-149.68 1049.3,-139.39 1030.94,-132.8"/>
<polygon fill="#63b8ff" stroke="#63b8ff" points="1032.13,-129.5 1021.53,-129.79 1029.99,-136.17 1032.13,-129.5"/>
</a>
</g>
</g>
<!-- Node24&#45;&gt;Node18 -->
<g id="edge59_Node000024_Node000018" class="edge">
<title>Node24&#45;&gt;Node18</title>
<g id="a_edge59_Node000024_Node000018"><a xlink:title=" ">
<path fill="none" stroke="#63b8ff" d="M970.43,-234.7C1008.7,-228.91 1056.87,-217.74 1095.12,-196.25 1120.48,-182.01 1142.85,-156.52 1156.19,-139.22"/>
<polygon fill="#63b8ff" stroke="#63b8ff" points="1158.89,-141.46 1162.05,-131.35 1153.27,-137.28 1158.89,-141.46"/>
</a>
</g>
</g>
<!-- Node24&#45;&gt;Node19 -->
<g id="edge60_Node000024_Node000019" class="edge">
<title>Node24&#45;&gt;Node19</title>
<g id="a_edge60_Node000024_Node000019"><a xlink:title=" ">
<path fill="none" stroke="#63b8ff" d="M839.68,-236.22C762.43,-229.88 639.28,-216.91 598.12,-196.25 584.19,-189.25 555.91,-158.69 538.34,-138.76"/>
<polygon fill="#63b8ff" stroke="#63b8ff" points="541.1,-136.61 531.89,-131.38 535.83,-141.21 541.1,-136.61"/>
</a>
</g>
</g>
</g>
</svg>
