<?xml version="1.0" encoding="UTF-8" standalone="no"?>
<!DOCTYPE svg PUBLIC "-//W3C//DTD SVG 1.1//EN"
 "http://www.w3.org/Graphics/SVG/1.1/DTD/svg11.dtd">
<!-- Generated by graphviz version 12.2.1 (0)
 -->
<!-- Title: allocation Pages: 1 -->
<svg width="483pt" height="366pt"
 viewBox="0.00 0.00 482.67 365.70" xmlns="http://www.w3.org/2000/svg" xmlns:xlink="http://www.w3.org/1999/xlink">
<g id="graph0" class="graph" transform="scale(1 1) rotate(0) translate(4 361.7)">
<title>allocation</title>
<text text-anchor="middle" x="237.34" y="-340.4" font-family="DejaVu Sans" font-size="14.00" fill="#d2dbde">Colored Register Allocation</text>
<g id="clust1" class="cluster">
<title>cluster_legend</title>
<path fill="#252628" stroke="#38393b" d="M20,-103.45C20,-103.45 202.8,-103.45 202.8,-103.45 208.8,-103.45 214.8,-109.45 214.8,-115.45 214.8,-115.45 214.8,-276.45 214.8,-276.45 214.8,-282.45 208.8,-288.45 202.8,-288.45 202.8,-288.45 20,-288.45 20,-288.45 14,-288.45 8,-282.45 8,-276.45 8,-276.45 8,-115.45 8,-115.45 8,-109.45 14,-103.45 20,-103.45"/>
<text text-anchor="middle" x="111.4" y="-271.15" font-family="DejaVu Sans" font-size="14.00" fill="#d2dbde">Legend</text>
</g>
<!-- web0 -->
<g id="node1" class="node">
<title>web0</title>
<polygon fill="#38393b" stroke="#859399" stroke-width="1.8" points="146.03,-92.95 76.78,-92.95 76.78,-15.95 146.03,-15.95 146.03,-92.95"/>
<text text-anchor="middle" x="111.4" y="-75.65" font-family="DejaVu Sans" font-size="14.00" fill="#f8f9fa">web0</text>
<text text-anchor="middle" x="111.4" y="-58.4" font-family="DejaVu Sans" font-size="14.00" fill="#f8f9fa">a</text>
<text text-anchor="middle" x="111.4" y="-41.15" font-family="DejaVu Sans" font-size="14.00" fill="#f8f9fa">M</text>
<text text-anchor="middle" x="111.4" y="-23.9" font-family="DejaVu Sans" font-size="14.00" fill="#f8f9fa">1+,2,3&#45;</text>
</g>
<!-- web1 -->
<g id="node2" class="node">
<title>web1</title>
<ellipse fill="#44b86f" stroke="#d2dbde" stroke-width="1.8" cx="291.77" cy="-95.45" rx="48.97" ry="54.45"/>
<text text-anchor="middle" x="291.77" y="-116.65" font-family="DejaVu Sans" font-size="14.00" fill="#f8f9fa">web1</text>
<text text-anchor="middle" x="291.77" y="-99.4" font-family="DejaVu Sans" font-size="14.00" fill="#f8f9fa">b</text>
<text text-anchor="middle" x="291.77" y="-82.15" font-family="DejaVu Sans" font-size="14.00" fill="#f8f9fa">r1</text>
<text text-anchor="middle" x="291.77" y="-64.9" font-family="DejaVu Sans" font-size="14.00" fill="#f8f9fa">1+,2,3&#45;</text>
</g>
<!-- web0&#45;&#45;web1 -->
<g id="edge1" class="edge">
<title>web0&#45;&#45;web1</title>
<path fill="none" stroke="#859399" stroke-width="1.3" d="M146.37,-62.26C173.86,-68.58 212.9,-77.55 243.45,-84.57"/>
</g>
<!-- web2 -->
<g id="node3" class="node">
<title>web2</title>
<ellipse fill="#1982d2" stroke="#d2dbde" stroke-width="1.8" cx="425.7" cy="-54.45" rx="48.97" ry="54.45"/>
<text text-anchor="middle" x="425.7" y="-75.65" font-family="DejaVu Sans" font-size="14.00" fill="#f8f9fa">web2</text>
<text text-anchor="middle" x="425.7" y="-58.4" font-family="DejaVu Sans" font-size="14.00" fill="#f8f9fa">c</text>
<text text-anchor="middle" x="425.7" y="-41.15" font-family="DejaVu Sans" font-size="14.00" fill="#f8f9fa">r0</text>
<text text-anchor="middle" x="425.7" y="-23.9" font-family="DejaVu Sans" font-size="14.00" fill="#f8f9fa">1+,2,3&#45;</text>
</g>
<!-- web0&#45;&#45;web2 -->
<g id="edge2" class="edge">
<title>web0&#45;&#45;web2</title>
<path fill="none" stroke="#859399" stroke-width="1.3" d="M146.52,-46.4C191.22,-36.94 272.01,-23.59 340.74,-32.45 352.99,-34.03 366.01,-36.85 378.05,-39.96"/>
</g>
<!-- web1&#45;&#45;web2 -->
<g id="edge3" class="edge">
<title>web1&#45;&#45;web2</title>
<path fill="none" stroke="#859399" stroke-width="1.3" d="M339.28,-80.99C351.9,-77.07 365.55,-72.83 378.16,-68.91"/>
</g>
<!-- key_reg -->
<g id="node4" class="node">
<title>key_reg</title>
<ellipse fill="#1982d2" stroke="#859399" stroke-width="1.8" cx="111.4" cy="-129.45" rx="75.41" ry="18"/>
<text text-anchor="middle" x="111.4" y="-124.77" font-family="DejaVu Sans" font-size="14.00" fill="#f8f9fa">register color</text>
</g>
<!-- key_mem -->
<g id="node5" class="node">
<title>key_mem</title>
<polygon fill="#38393b" stroke="#859399" stroke-width="1.8" points="164.78,-201.45 58.03,-201.45 58.03,-165.45 164.78,-165.45 164.78,-201.45"/>
<text text-anchor="middle" x="111.4" y="-178.77" font-family="DejaVu Sans" font-size="14.00" fill="#f8f9fa">M = memory</text>
</g>
<!-- key_split -->
<g id="node6" class="node">
<title>key_split</title>
<ellipse fill="#252628" stroke="#ff8800" stroke-width="3" cx="111.4" cy="-237.45" rx="95.4" ry="18"/>
<text text-anchor="middle" x="111.4" y="-232.77" font-family="DejaVu Sans" font-size="14.00" fill="#f8f9fa">split&#45;derived web</text>
</g>
<!-- note -->
<g id="node7" class="node">
<title>note</title>
<polygon fill="#252628" stroke="#ff8800" stroke-width="1.8" points="154.28,-332.45 62.53,-332.45 62.53,-296.45 160.28,-296.45 160.28,-326.45 154.28,-332.45"/>
<polyline fill="none" stroke="#ff8800" stroke-width="1.8" points="154.28,-332.45 154.28,-326.45"/>
<polyline fill="none" stroke="#ff8800" stroke-width="1.8" points="160.28,-326.45 154.28,-326.45"/>
<text text-anchor="middle" x="111.4" y="-309.77" font-family="DejaVu Sans" font-size="14.00" fill="#d2dbde">spills: web0</text>
</g>
</g>
</svg>
